<svg width="50" height="50" viewBox="0 0 50 50" fill="none" xmlns="http://www.w3.org/2000/svg">
<g clip-path="url(#clip0_113_1856)">
<path d="M44.2707 8.36601H33.3332V7.84492C33.3332 5.83458 31.6978 4.19922 29.6875 4.19922H20.3125C18.3022 4.19922 16.6668 5.83458 16.6668 7.84492V8.36601H5.72929C2.56882 8.36601 0 10.9344 0 14.0949V40.1367C0 43.2972 2.56882 45.866 5.72929 45.866H44.2707C47.4312 45.866 50 43.2972 50 40.1367V14.0949C50 10.9344 47.4312 8.36601 44.2707 8.36601ZM29.1687 12.5324H20.8332V8.36601H29.1668L29.1687 12.5324ZM15.625 18.7824C18.4959 18.7824 20.8332 21.1201 20.8332 23.991C20.8332 26.8616 18.4959 29.1992 15.625 29.1992C12.7541 29.1992 10.4168 26.8616 10.4168 23.991C10.4168 21.1201 12.7541 18.7824 15.625 18.7824ZM25 38.0535C25 38.916 24.3 39.616 23.4375 39.616H7.8125C6.95 39.616 6.25 38.916 6.25 38.0535V37.0117C6.25 33.8512 8.81882 31.2824 11.9793 31.2824H19.2707C22.4312 31.2824 25 33.8512 25 37.0117V38.0535ZM42.1875 39.616H30.7293C29.8668 39.616 29.1668 38.916 29.1668 38.0535C29.1668 37.191 29.8668 36.491 30.7293 36.491H42.1875C43.05 36.491 43.75 37.191 43.75 38.0535C43.75 38.916 43.05 39.616 42.1875 39.616ZM42.1875 31.2824H30.7293C29.8668 31.2824 29.1668 30.5824 29.1668 29.7199C29.1668 28.8574 29.8668 28.1574 30.7293 28.1574H42.1875C43.05 28.1574 43.75 28.8574 43.75 29.7199C43.75 30.5824 43.05 31.2824 42.1875 31.2824ZM42.1875 22.9492H30.7293C29.8668 22.9492 29.1668 22.2492 29.1668 21.3867C29.1668 20.5242 29.8668 19.8242 30.7293 19.8242H42.1875C43.05 19.8242 43.75 20.5242 43.75 21.3867C43.75 22.2492 43.05 22.9492 42.1875 22.9492Z" fill="#2EAAFA"/>
</g>
<defs>
<clipPath id="clip0_113_1856">
<rect width="50" height="50" fill="white"/>
</clipPath>
</defs>
</svg>
