<svg width="61" height="50" viewBox="0 0 61 50" fill="none" xmlns="http://www.w3.org/2000/svg">
<path fill-rule="evenodd" clip-rule="evenodd" d="M60.7175 47.9412C60.6463 48.0653 60.5229 48.1351 60.378 48.1327L58.6652 48.1233C58.5204 48.1233 58.3958 48.1942 58.3222 48.3208L57.4783 49.8025C57.4047 49.9302 57.2836 50 57.1388 50C56.994 50 56.8729 49.929 56.7993 49.8061L54.7743 46.3128L55.0129 46.1449L56.3684 46.1378C57.4925 46.1342 58.4884 45.4838 58.943 44.4822L60.7235 47.5497C60.7911 47.6727 60.7911 47.817 60.7175 47.9412ZM48.0632 46.1401C46.9427 46.1307 45.9539 45.4803 45.5029 44.4774L43.7224 47.5486C43.6512 47.6727 43.6512 47.817 43.7224 47.9412C43.796 48.0653 43.9206 48.1351 44.0619 48.1327L45.7783 48.1233C45.9231 48.1233 46.0477 48.1942 46.1177 48.3208L46.9652 49.8025C47.0365 49.9302 47.1599 50 47.3011 50C47.446 50 47.5706 49.929 47.6406 49.8061L49.6692 46.3069L49.4603 46.1555L48.0632 46.1401ZM28.8342 15.9376H46.0002C46.4275 15.9376 46.8275 16.0854 47.148 16.3396C47.4614 16.5915 47.6928 16.9498 47.7878 17.372C47.8721 17.7575 48.0739 18.1064 48.3528 18.3843C48.6317 18.6622 48.9819 18.8632 49.3689 18.9472C49.7926 19.0406 50.1523 19.2724 50.4051 19.5846C50.6603 19.9027 50.8087 20.3024 50.8087 20.7281V28.1794C51.7713 27.6295 52.9618 27.6827 53.877 28.3402L54.9809 29.1314L55.7785 29.1385V12.8712C55.7785 11.5006 54.6545 10.3807 53.2787 10.3807H26.4175L27.6828 11.6413C28.8437 12.7931 29.2508 14.4322 28.8342 15.9376ZM43.8435 42.0851C42.8642 41.365 42.4571 40.1008 42.8274 38.9478L43.2441 37.66L43.0458 37.0332H22.0637C21.6328 37.0332 21.2328 36.8854 20.9159 36.6312C20.599 36.3769 20.3711 36.021 20.2761 35.5988C20.1883 35.2133 19.99 34.8609 19.7111 34.5865C19.4322 34.3086 19.0784 34.1076 18.6915 34.0201C18.2677 33.929 17.9105 33.6984 17.6588 33.3862C17.4036 33.0681 17.2553 32.6684 17.2553 32.2403V28.1605C17.2149 28.1806 17.1781 28.2042 17.1413 28.2279C15.6065 29.1633 13.7121 29.0829 12.283 28.0836V40.0972C12.283 41.4678 13.4106 42.5913 14.7863 42.5913H44.5331L43.8435 42.0851ZM46.9664 19.7655C47.4744 20.2716 48.1202 20.6441 48.8478 20.8251V29.1456H48.0727C46.8513 29.1527 45.7818 29.9237 45.3913 31.0767L44.9509 32.3976L43.8542 33.1982C43.2215 33.657 42.8274 34.3417 42.7206 35.0785H22.1586C21.9806 34.3547 21.6067 33.7079 21.0987 33.2041C20.5907 32.698 19.9449 32.3255 19.215 32.1445V26.8644C22.6465 24.4272 25.5107 21.4471 27.8253 17.8911H45.9041C46.0845 18.6161 46.4584 19.2594 46.9664 19.7655ZM27.6425 21.945C27.6425 22.4842 28.0805 22.9206 28.6217 22.9206H39.4386C39.9799 22.9206 40.4214 22.4842 40.4214 21.945C40.4214 21.4057 39.9811 20.9693 39.4386 20.9693H28.6217C28.0805 20.9693 27.6425 21.4057 27.6425 21.945ZM43.8945 31.0258C43.8945 30.4866 43.4565 30.0467 42.9153 30.0467H25.1463C24.6074 30.0467 24.167 30.4854 24.167 31.0258C24.167 31.5663 24.6074 32.0014 25.1463 32.0014H42.9153C43.4565 32.0014 43.8945 31.5651 43.8945 31.0258ZM43.8945 26.4836C43.8945 25.9467 43.4565 25.508 42.9153 25.508H25.1463C24.6074 25.508 24.167 25.9467 24.167 26.4836C24.167 27.0229 24.6074 27.4628 25.1463 27.4628H42.9153C43.4565 27.4628 43.8945 27.0229 43.8945 26.4836ZM56.3601 44.1865L54.658 44.1936C54.4693 44.1936 54.3043 44.2445 54.1536 44.3545L52.7339 45.3632C52.4206 45.5843 52.0206 45.5843 51.7108 45.3596L50.3279 44.3675C50.176 44.2563 50.0122 44.2031 49.8235 44.2031L48.081 44.1901C47.6976 44.1865 47.3747 43.9488 47.2572 43.587L46.7255 41.9752C46.6649 41.7978 46.564 41.6606 46.4121 41.5459L45.0091 40.5135C44.7029 40.2888 44.5782 39.9069 44.6957 39.545L45.2168 37.9296C45.2738 37.7487 45.2738 37.5808 45.2168 37.3998L44.6922 35.7442C44.5782 35.3788 44.7029 35.0004 45.0115 34.7757L46.3848 33.7729C46.5391 33.6618 46.64 33.5246 46.7005 33.3437L47.2525 31.6975C47.3736 31.3357 47.6964 31.1003 48.0798 31.1003L49.7819 31.0932C49.9742 31.0932 50.1356 31.04 50.2899 30.9324L51.7096 29.9237C52.0194 29.7026 52.4194 29.7026 52.7327 29.9237L54.112 30.9194C54.2663 31.027 54.4277 31.0802 54.6165 31.0838L56.3589 31.0968C56.7423 31.1003 57.0652 31.3345 57.1863 31.6963L57.718 33.3082C57.7786 33.4891 57.8759 33.6263 58.0314 33.7374L59.4308 34.7698C59.7406 34.9981 59.8617 35.3765 59.7442 35.7419L59.2255 37.3573C59.165 37.5346 59.165 37.7061 59.2219 37.887L59.7466 39.5426C59.8605 39.9045 59.7371 40.2829 59.4308 40.5111L58.0551 41.514C57.9032 41.6251 57.8023 41.7623 57.7418 41.9397L57.1898 43.5893C57.0699 43.9512 56.7435 44.183 56.3601 44.1865ZM55.8213 41.2301C56.7435 40.3113 57.3121 39.0448 57.3121 37.6434C57.3121 36.2421 56.7435 34.9756 55.8213 34.0567C54.899 33.1379 53.6277 32.5679 52.2212 32.5679C50.8146 32.5679 49.5398 33.1379 48.6211 34.0567C47.6988 34.9756 47.1267 36.2421 47.1267 37.6434C47.1267 39.0448 47.6988 40.3113 48.6211 41.2301C49.5398 42.149 50.8146 42.7154 52.2212 42.7154C53.6277 42.7154 54.9002 42.1478 55.8213 41.2301ZM52.2212 34.5227C51.357 34.5227 50.5724 34.8715 50.0074 35.438C49.4389 36.0009 49.0887 36.7825 49.0887 37.6434C49.0887 38.5043 49.4389 39.286 50.0074 39.8489C50.5724 40.4154 51.357 40.7642 52.2212 40.7642C53.0865 40.7642 53.8699 40.4154 54.4349 39.8489C54.9999 39.286 55.3536 38.5043 55.3536 37.6434C55.3536 36.7814 54.9999 36.0009 54.4349 35.438C53.8699 34.8703 53.0865 34.5227 52.2212 34.5227ZM16.1193 26.5605C20.2179 24.0665 23.818 20.7115 26.6644 16.0617C27.2662 15.0731 27.119 13.8397 26.2976 13.0214L23.1581 9.88995L19.5449 17.767C19.1983 18.5215 18.593 19.1246 17.8357 19.4699L9.92925 23.0696L13.0688 26.1974C13.8878 27.017 15.1294 27.1636 16.1193 26.5605ZM6.49889 27.0205L3.37359 23.9068L17.0202 17.6948C17.3467 17.5435 17.609 17.2821 17.7609 16.9569L25.0525 1.05741C25.2175 0.702645 25.1937 0.377441 24.9884 0.172858C24.783 -0.0317244 24.4531 -0.0553755 24.097 0.105453L8.1381 7.37346C7.81169 7.52128 7.54936 7.78263 7.40099 8.11138L0.105846 24.0062C-0.0555823 24.3609 -0.0318428 24.6897 0.173504 24.8943C0.37885 25.0988 0.705268 25.1225 1.06136 24.9581L1.47205 24.7736L1.71064 25.0113L5.11251 28.4006L5.98374 29.2686C6.36714 29.6505 6.98674 29.6505 7.37013 29.2686C7.75352 28.8901 7.75352 28.2693 7.37013 27.8873L6.49889 27.0205Z" fill="#2EAAFA"/>
</svg>
