<svg width="50" height="50" viewBox="0 0 50 50" fill="none" xmlns="http://www.w3.org/2000/svg">
<path fill-rule="evenodd" clip-rule="evenodd" d="M21.8466 29.3537C19.805 25.8636 16.0228 23.5196 11.6936 23.5196C7.36431 23.5196 3.58215 25.8636 1.54051 29.3537H21.8466ZM27.2325 50H48.2038C48.526 50 48.8033 49.8671 49.0055 49.6156C49.2075 49.3643 49.2782 49.0645 49.2097 48.7491C48.0582 43.4515 43.3508 39.4841 37.7182 39.4841C32.0854 39.4841 27.3779 43.4515 26.2265 48.7491C26.158 49.0645 26.2287 49.3643 26.4308 49.6156C26.6329 49.8671 26.9103 50 27.2325 50ZM37.7182 26.5368C41.0024 26.5368 43.6648 29.2044 43.6648 32.4948C43.6648 35.7853 41.0023 38.4527 37.7182 38.4527C34.4339 38.4527 31.7716 35.7852 31.7716 32.4948C31.7716 29.2043 34.434 26.5368 37.7182 26.5368ZM1.02941 31.0039H30.2708C30.1751 31.4861 30.1245 31.9844 30.1245 32.4948C30.1245 35.0041 31.3376 37.23 33.2081 38.6159C28.9478 40.142 25.6217 43.7761 24.6171 48.398C24.5758 48.5882 24.5552 48.7792 24.5547 48.9684H1.02941C0.462412 48.9684 0 48.5051 0 47.937V32.0353C0 31.4672 0.462412 31.0039 1.02941 31.0039ZM45.1656 31.0039H48.3824C48.9494 31.0039 49.4118 31.4672 49.4118 32.0353V44.6874C47.8269 41.8631 45.2651 39.7039 42.2282 38.616C44.0988 37.2301 45.3118 35.0041 45.3118 32.4948C45.3118 31.9844 45.2613 31.4861 45.1656 31.0039ZM47.0955 16.9131C47.0955 18.4627 45.8341 19.7264 44.2876 19.7264H31.5922L26.0976 25.4572V19.7264H23.7216C22.175 19.7264 20.9136 18.4627 20.9136 16.9131C20.9136 12.2132 20.9136 7.51327 20.9136 2.81329C20.9136 1.26375 22.175 0 23.7216 0H44.2876C45.8341 0 47.0955 1.26375 47.0955 2.81329V16.9131ZM40.9458 9.63955L34.3487 11.3953C33.9278 11.5073 33.4848 11.5052 33.065 11.39L26.4877 9.63955V13.0034C35.1165 14.5842 32.3168 14.5842 40.9457 13.0034V9.63955H40.9458ZM42.8257 12.2073L42.2418 12.4989V16.2125L43.6492 15.297L45.0566 16.2125V12.4989L44.4728 12.2073V6.7614C44.5148 6.69353 44.5474 6.61845 44.5688 6.53717C44.6843 6.0975 44.4221 5.6473 43.9834 5.53158L33.9379 2.85805C33.8019 2.81989 33.6543 2.81628 33.5078 2.85485L23.4617 5.52849C23.1799 5.59883 22.944 5.81686 22.865 6.11813C22.7495 6.5578 23.0117 7.008 23.4504 7.12372L33.4959 9.79715C33.6319 9.83531 33.7795 9.83892 33.926 9.80035L42.8258 7.43179V12.2073H42.8257ZM11.6936 9.54085C14.9778 9.54085 17.6402 12.2083 17.6402 15.4988C17.6402 18.7893 14.9778 21.4568 11.6936 21.4568C8.40937 21.4568 5.747 18.7893 5.747 15.4988C5.747 12.2084 8.40947 9.54085 11.6936 9.54085Z" fill="#2EAAFA"/>
</svg>
