<svg width="53" height="50" viewBox="0 0 53 50" fill="none" xmlns="http://www.w3.org/2000/svg">
<path d="M39.0642 15.8002C45.7668 15.8002 51.2231 21.2565 51.2231 27.9591C51.2231 30.786 50.2352 33.537 48.4342 35.7104C48.2214 35.9611 48.1986 36.3259 48.381 36.5995L50.372 39.738L45.3109 38.6133C45.1361 38.5753 44.9461 38.5981 44.7865 38.6817C43.0387 39.6164 41.0629 40.1104 39.0718 40.1104C37.9699 40.1104 33.2421 39.738 27.5056 35.7104C27.574 36.2347 27.4904 36.6794 27.5056 37.2189C27.7997 37.9544 32.6538 41.3034 39.0718 41.6302C41.2149 41.6302 43.3427 41.1211 45.2501 40.1559L51.8311 41.615C51.8843 41.6302 51.9375 41.6302 51.9983 41.6302C52.2415 41.6302 52.477 41.5086 52.6214 41.3034C52.7962 41.0527 52.8038 40.7183 52.6442 40.4599L49.9693 36.2347C51.7779 33.8637 52.7658 30.9456 52.7658 27.9515C52.7658 20.4053 46.6332 14.2727 39.087 14.2727C31.5409 14.2727 25.8719 19.9798 25.4463 27.1459C25.9554 27.3055 26.4494 27.5031 26.9358 27.7159C27.0649 21.1197 32.4605 15.7926 39.0794 15.7926L39.0642 15.8002Z" fill="#2EAAFA"/>
<path d="M32.9844 22.2596H45.1433V24.5394H32.9844V22.2596Z" fill="#2EAAFA"/>
<path d="M32.9844 26.8192H45.1433V29.0989H32.9844V26.8192Z" fill="#2EAAFA"/>
<path d="M36.0244 31.3787H45.1436V33.6585H36.0244V31.3787Z" fill="#2EAAFA"/>
<path d="M25.431 2.52822C25.4261 2.1298 25.3277 1.7381 25.1436 1.38471C24.9595 1.03132 24.695 0.726116 24.3714 0.493715C24.0404 0.250552 23.6555 0.0911543 23.2495 0.0291515C22.8436 -0.0328514 22.4286 0.00438508 22.0402 0.137677L5.48438 5.91906H25.431V2.52822Z" fill="#2EAAFA"/>
<path d="M16.1066 30.9265C16.5135 30.9265 17.6409 28.892 17.802 24.9926H14.4111C14.5722 28.892 15.6997 30.9265 16.1066 30.9265Z" fill="#2EAAFA"/>
<path d="M16.1066 17.3632C15.6997 17.3632 14.5722 19.3977 14.4111 23.2971H17.802C17.6409 19.3977 16.5135 17.3632 16.1066 17.3632Z" fill="#2EAAFA"/>
<path d="M13.7665 30.5027C13.0996 28.7407 12.744 26.8763 12.7153 24.9926H9.38379C9.53998 26.2242 10.0312 27.3893 10.8041 28.3609C11.5769 29.3325 12.6016 30.0734 13.7665 30.5027Z" fill="#2EAAFA"/>
<path d="M13.7665 17.787C12.6016 18.2163 11.5769 18.9571 10.8041 19.9288C10.0312 20.9004 9.53998 22.0655 9.38379 23.2971H12.7153C12.744 21.4134 13.0996 19.549 13.7665 17.787Z" fill="#2EAAFA"/>
<path d="M0 10.1576V47.4568C0 48.1313 0.267936 48.7782 0.744866 49.2551C1.2218 49.732 1.86865 50 2.54313 50H29.6699C30.3443 50 30.9912 49.732 31.4681 49.2551C31.9451 48.7782 32.213 48.1313 32.213 47.4568V10.1576C32.213 9.48309 31.9451 8.83624 31.4681 8.35931C30.9912 7.88238 30.3443 7.61444 29.6699 7.61444H2.54313C1.86865 7.61444 1.2218 7.88238 0.744866 8.35931C0.267936 8.83624 0 9.48309 0 10.1576ZM22.8882 41.9467H9.32481C9.09999 41.9467 8.88437 41.8574 8.72539 41.6984C8.56641 41.5394 8.4771 41.3238 8.4771 41.099C8.4771 40.8742 8.56641 40.6586 8.72539 40.4996C8.88437 40.3406 9.09999 40.2513 9.32481 40.2513H22.8882C23.113 40.2513 23.3286 40.3406 23.4876 40.4996C23.6466 40.6586 23.7359 40.8742 23.7359 41.099C23.7359 41.3238 23.6466 41.5394 23.4876 41.6984C23.3286 41.8574 23.113 41.9467 22.8882 41.9467ZM11.8679 38.5559C11.8679 38.331 11.9573 38.1154 12.1162 37.9564C12.2752 37.7975 12.4908 37.7082 12.7157 37.7082H19.4973C19.7222 37.7082 19.9378 37.7975 20.0968 37.9564C20.2557 38.1154 20.345 38.331 20.345 38.5559C20.345 38.7807 20.2557 38.9963 20.0968 39.1553C19.9378 39.3143 19.7222 39.4036 19.4973 39.4036H12.7157C12.4908 39.4036 12.2752 39.3143 12.1162 39.1553C11.9573 38.9963 11.8679 38.7807 11.8679 38.5559ZM16.1065 15.6677C17.7831 15.6677 19.4221 16.1649 20.8161 17.0963C22.2102 18.0278 23.2967 19.3518 23.9383 20.9007C24.5799 22.4497 24.7478 24.1542 24.4207 25.7986C24.0936 27.443 23.2863 28.9535 22.1007 30.139C20.9152 31.3246 19.4047 32.1319 17.7603 32.459C16.1159 32.7861 14.4114 32.6182 12.8625 31.9766C11.3135 31.335 9.98952 30.2485 9.05804 28.8544C8.12657 27.4604 7.62939 25.8214 7.62939 24.1448C7.62939 21.8965 8.52251 19.7403 10.1123 18.1506C11.702 16.5608 13.8582 15.6677 16.1065 15.6677Z" fill="#2EAAFA"/>
<path d="M22.829 23.2971C22.6728 22.0655 22.1815 20.9004 21.4087 19.9288C20.6359 18.9571 19.6112 18.2163 18.4463 17.787C19.1131 19.549 19.4688 21.4134 19.4975 23.2971H22.829Z" fill="#2EAAFA"/>
<path d="M22.829 24.9926H19.4975C19.4688 26.8763 19.1131 28.7407 18.4463 30.5027C19.6112 30.0734 20.6359 29.3325 21.4087 28.3609C22.1815 27.3893 22.6728 26.2242 22.829 24.9926Z" fill="#2EAAFA"/>
</svg>
