<svg width="47" height="47" viewBox="0 0 47 47" fill="none" xmlns="http://www.w3.org/2000/svg">
<path fill-rule="evenodd" clip-rule="evenodd" d="M4.7 0.000344665C3.41165 0.000344665 2.35 1.06199 2.35 2.35033V43.8667H29.6398C28.121 42.1323 26.7935 39.8583 25.6741 37.3859C23.3612 32.2771 21.9334 26.3896 21.9334 22.7165C21.9334 19.7899 22.8833 17.0828 24.4884 14.8833H23.5001C22.2117 14.8833 21.1501 13.8216 21.1501 12.5333V6.26665C21.1501 4.97831 22.2117 3.91667 23.5001 3.91667H30.5501C31.8384 3.91667 32.9001 4.97831 32.9001 6.26665V9.61107C33.6636 9.47458 34.4478 9.39994 35.2501 9.39994C35.7804 9.39994 36.3025 9.43427 36.8167 9.49479V2.34998C36.8167 1.06164 35.7551 0 34.4667 0L4.7 0.000344665ZM8.61667 3.91698H15.6667C16.955 3.91698 18.0167 4.97863 18.0167 6.26696V12.5336C18.0167 13.8219 16.955 14.8836 15.6667 14.8836H8.61667C7.32832 14.8836 6.26667 13.8219 6.26667 12.5336V6.26696C6.26667 4.97863 7.32832 3.91698 8.61667 3.91698ZM35.25 10.9669C28.7514 10.9669 23.5 16.2183 23.5 22.7168C23.5 25.9662 24.8783 31.8277 27.1015 36.7384C28.2132 39.1937 29.5357 41.4223 30.9524 42.9928C32.3691 44.5633 33.8322 45.433 35.25 45.433C36.6678 45.433 38.131 44.5633 39.5476 42.9928C40.9643 41.4223 42.2868 39.1937 43.3985 36.7384C45.6217 31.8277 47 25.9661 47 22.7168C47 16.2183 41.7486 10.9669 35.25 10.9669ZM35.25 16.4502C38.7017 16.4502 41.5167 19.2652 41.5167 22.7168C41.5167 26.1685 38.7017 28.9835 35.25 28.9835C31.7983 28.9835 28.9833 26.1685 28.9833 22.7168C28.9833 19.2652 31.7983 16.4502 35.25 16.4502ZM8.61667 17.2336H15.6667C16.955 17.2336 18.0167 18.2952 18.0167 19.5835V25.8502C18.0167 27.1385 16.955 28.2001 15.6667 28.2001H8.61667C7.32832 28.2001 6.26667 27.1385 6.26667 25.8502V19.5835C6.26667 18.2952 7.32832 17.2336 8.61667 17.2336ZM8.61667 30.5501H15.6667C16.955 30.5501 18.0167 31.6118 18.0167 32.9001V39.1667C18.0167 40.4551 16.955 41.5167 15.6667 41.5167H8.61667C7.32832 41.5167 6.26667 40.4551 6.26667 39.1667V32.9001C6.26667 31.6118 7.32832 30.5501 8.61667 30.5501ZM0.783333 45.4333C0.350714 45.4333 0 45.7841 0 46.2167C0 46.6493 0.350714 47 0.783333 47H35.25C33.813 47 32.4815 46.3968 31.266 45.4333H0.783333Z" fill="#2EAAFA"/>
</svg>
