<svg width="49" height="50" viewBox="0 0 49 50" fill="none" xmlns="http://www.w3.org/2000/svg">
<path d="M22.43 35.2997V37.0596C22.43 40.3948 17.4092 43.0984 11.215 43.0984C5.02088 43.0984 0 40.3948 0 37.0596V35.2997C2.46385 37.4392 6.48401 38.785 11.215 38.785C15.946 38.785 19.9662 37.4374 22.43 35.2997Z" fill="#2EAAFA"/>
<path d="M22.43 42.2012V43.9611C22.43 47.2963 17.4092 50 11.215 50C5.02088 50 0 47.2963 0 43.9611V42.2012C2.46385 44.3407 6.48401 45.6865 11.215 45.6865C15.946 45.6865 19.9662 44.339 22.43 42.2012Z" fill="#2EAAFA"/>
<path d="M22.43 30.1581C22.43 33.4932 17.4092 36.1969 11.215 36.1969C5.02088 36.1969 0 33.4932 0 30.1581C0 26.8229 5.02088 24.1192 11.215 24.1192C17.4092 24.1192 22.43 26.8229 22.43 30.1581Z" fill="#2EAAFA"/>
<path d="M37.0959 38.785C41.8269 38.785 45.847 37.4374 48.3109 35.2997V37.0596C48.3109 40.3948 43.29 43.0984 37.0959 43.0984C30.9017 43.0984 25.8809 40.3948 25.8809 37.0596V35.2997C28.3447 37.4374 32.3649 38.785 37.0959 38.785Z" fill="#2EAAFA"/>
<path d="M37.0959 45.6865C41.8269 45.6865 45.847 44.339 48.3109 42.2012V43.9611C48.3109 47.2963 43.29 50 37.0959 50C30.9017 50 25.8809 47.2963 25.8809 43.9611V42.2012C28.3447 44.339 32.3649 45.6865 37.0959 45.6865Z" fill="#2EAAFA"/>
<path d="M48.3109 30.1581C48.3109 33.4932 43.29 36.1969 37.0959 36.1969C30.9017 36.1969 25.8809 33.4932 25.8809 30.1581C25.8809 26.8229 30.9017 24.1192 37.0959 24.1192C43.29 24.1192 48.3109 26.8229 48.3109 30.1581Z" fill="#2EAAFA"/>
<path d="M32.7822 13.1025V19.5779C32.7822 19.5779 29.0847 22.3938 24.1553 22.3938C19.2258 22.3938 15.5283 19.5762 15.5283 19.5762V13.1025L24.1553 16.5533L32.7822 13.1025Z" fill="#2EAAFA"/>
<path d="M40.2479 7.32945L37.9583 8.24563V14.0308C38.4655 14.3311 38.821 14.8608 38.821 15.4923V18.943H35.3702V15.4923C35.3702 14.8608 35.7256 14.3311 36.2329 14.0308V8.93578L24.3415 13.6927C24.2225 13.741 24.0896 13.741 23.9706 13.6927L8.0625 7.32945C7.64323 7.16208 7.64323 6.56855 8.0625 6.39946L23.9688 0.0362331C24.0879 -0.0120777 24.2208 -0.0120777 24.3398 0.0362331L40.2462 6.39946C40.6671 6.56855 40.6671 7.16208 40.2479 7.32945Z" fill="#2EAAFA"/>
</svg>
