<svg xmlns="http://www.w3.org/2000/svg" width="30" height="30" viewBox="0 0 30 30" fill="none">
  <path d="M15 0C12.0332 0 9.1332 0.87972 6.66648 2.52792C4.19976 4.17612 2.27712 6.51888 1.14181 9.2598C0.00650604 12.0006 -0.290555 15.0167 0.288229 17.9263C0.867001 20.8361 2.2956 23.5089 4.39344 25.6066C6.49116 27.7044 9.16392 29.133 12.0737 29.7118C14.9833 30.2905 17.9994 29.9935 20.7402 28.8582C23.4811 27.7229 25.8239 25.8003 27.4721 23.3335C29.1203 20.8668 30 17.9668 30 15C29.9963 11.0228 28.4148 7.20972 25.6025 4.39752C22.7903 1.5852 18.9772 0.00372 15 0ZM8.98608 8.98608C9.21072 8.757 9.47892 8.57496 9.77484 8.45076C10.0708 8.32656 10.3884 8.26248 10.7093 8.26248C11.0302 8.26248 11.3479 8.32656 11.6438 8.45076C11.9396 8.57496 12.2078 8.757 12.4326 8.98608C12.6828 9.20664 12.8851 9.47616 13.0271 9.77796C13.1692 10.0799 13.2478 10.4076 13.2583 10.741C13.2688 11.0744 13.2108 11.4064 13.088 11.7166C12.9652 12.0266 12.7801 12.3084 12.5443 12.5443C12.3084 12.7801 12.0268 12.9652 11.7166 13.0879C11.4064 13.2108 11.0744 13.2688 10.741 13.2583C10.4076 13.2478 10.0799 13.1692 9.77808 13.0271C9.47616 12.8851 9.20664 12.6828 8.98608 12.4326C8.757 12.2078 8.57496 11.9396 8.45076 11.6438C8.32656 11.3479 8.26248 11.0302 8.26248 10.7093C8.26248 10.3884 8.32656 10.0706 8.45076 9.77485C8.57496 9.47892 8.757 9.21072 8.98608 8.98608ZM11.7768 21.2372C11.6468 21.4016 11.4815 21.5347 11.2931 21.6265C11.1047 21.7183 10.8979 21.7664 10.6884 21.7674C10.4243 21.7684 10.1654 21.6943 9.94176 21.5539C9.7182 21.4135 9.53892 21.2127 9.42492 20.9744C9.31104 20.7362 9.26688 20.4706 9.29796 20.2084C9.32892 19.9462 9.43368 19.6981 9.6 19.493L18.2093 8.76276C18.4396 8.47524 18.7741 8.29044 19.14 8.24868C19.506 8.2068 19.8737 8.31144 20.1628 8.53956C20.3071 8.65368 20.4275 8.79528 20.517 8.95608C20.6064 9.117 20.6632 9.29389 20.6839 9.47676C20.7046 9.65965 20.689 9.8448 20.6378 10.0217C20.5867 10.1984 20.5012 10.3634 20.3861 10.507L11.7768 21.2372ZM21 21.0139C20.7752 21.243 20.5072 21.4251 20.2112 21.5492C19.9153 21.6735 19.5977 21.7375 19.2768 21.7375C18.9558 21.7375 18.6382 21.6735 18.3422 21.5492C18.0463 21.4251 17.7782 21.243 17.5535 21.0139C17.1427 20.5481 16.9249 19.9432 16.9444 19.3224C16.9639 18.7015 17.2192 18.1115 17.6584 17.6724C18.0976 17.2332 18.6876 16.9778 19.3085 16.9584C19.9292 16.9388 20.5342 17.1566 21 17.5674C21.23 17.7912 21.413 18.0587 21.5386 18.354C21.664 18.6494 21.7292 18.9668 21.7306 19.2877C21.7318 19.6087 21.6691 19.9266 21.5461 20.223C21.423 20.5194 21.2422 20.7883 21.0139 21.0139H21Z" fill="#1F2F98"/>
</svg>