<svg xmlns="http://www.w3.org/2000/svg" width="33" height="24" viewBox="0 0 33 24" fill="none">
  <path d="M16.0631 15.8094C21.097 15.8094 25.3952 16.6254 25.3952 19.8905C25.3952 23.1543 21.1246 24 16.0631 24C11.0293 24 6.73108 23.184 6.73108 19.9203C6.73108 16.6551 11.0017 15.8094 16.0631 15.8094ZM24.1116 13.8433C26.0362 13.8069 28.105 14.077 28.8696 14.2689C30.4893 14.5944 31.5547 15.2591 31.9961 16.225C32.3691 17.018 32.3691 17.9379 31.9961 18.7296C31.3208 20.2278 29.1442 20.7086 28.2981 20.8329C28.1235 20.8599 27.983 20.7045 28.0013 20.5249C28.4335 16.3736 24.9958 14.4053 24.1064 13.9527C24.0683 13.9325 24.0604 13.9014 24.0643 13.8824C24.067 13.869 24.0827 13.8474 24.1116 13.8433ZM8.16524 13.8438C8.19407 13.8479 8.20853 13.8696 8.2112 13.8816C8.2151 13.9019 8.2072 13.9317 8.17047 13.9533C7.27977 14.4059 3.84204 16.3742 4.27422 20.5241C4.29258 20.7051 4.15335 20.8591 3.97861 20.8335C3.13269 20.7092 0.956003 20.2282 0.280792 18.7301C-0.0935972 17.9371 -0.0935972 17.0184 0.280792 16.2255C0.72217 15.2595 1.78622 14.595 3.40592 14.2681C4.17171 14.0776 6.23937 13.8073 8.16524 13.8438ZM16.0631 0C19.4904 0 22.2385 2.82344 22.2385 6.3492C22.2385 9.87383 19.4904 12.6999 16.0631 12.6999C12.6359 12.6999 9.88777 9.87383 9.88777 6.3492C9.88777 2.82344 12.6359 0 16.0631 0ZM24.4466 1.05885C27.757 1.05885 30.3567 4.26178 29.4713 7.82954C28.8735 10.2315 26.7101 11.827 24.2995 11.7621C24.0578 11.7553 23.82 11.7324 23.5901 11.6918C23.4233 11.6621 23.3392 11.469 23.4338 11.3257C24.3534 9.93426 24.8775 8.26047 24.8775 6.46379C24.8775 4.58871 24.3047 2.84062 23.3103 1.40739C23.2788 1.36279 23.2552 1.29383 23.2867 1.24251C23.313 1.20063 23.3616 1.17901 23.4076 1.1682C23.7425 1.09799 24.0867 1.05885 24.4466 1.05885ZM7.82823 1.05873C8.18817 1.05873 8.5324 1.09788 8.86863 1.16809C8.91337 1.1789 8.96323 1.20188 8.9895 1.24239C9.01977 1.29372 8.9974 1.36267 8.9659 1.40717C7.97147 2.8405 7.39874 4.58859 7.39874 6.46368C7.39874 8.26036 7.92284 9.93414 8.84236 11.3256C8.93697 11.4688 8.85294 11.662 8.6861 11.6917C8.45483 11.7336 8.21844 11.7552 7.9767 11.762C5.56614 11.8268 3.40264 10.2314 2.80493 7.82942C1.91824 4.26167 4.51796 1.05873 7.82823 1.05873Z" fill="#1F2F98"/>
</svg>