<svg width="16" height="16" viewBox="0 0 16 16" fill="none" xmlns="http://www.w3.org/2000/svg">
<path d="M3.53683 5.53736C3.40631 5.6681 3.33301 5.84529 3.33301 6.03002C3.33301 6.21476 3.40631 6.39195 3.53683 6.52269L7.47283 10.4627C7.62483 10.6147 7.83016 10.6827 8.02883 10.664C8.20883 10.664 8.38816 10.5967 8.52483 10.46L12.4628 6.52202C12.5275 6.45737 12.5788 6.38061 12.6138 6.29614C12.6488 6.21166 12.6668 6.12113 12.6668 6.02969C12.6668 5.93826 12.6488 5.84772 12.6138 5.76324C12.5788 5.67877 12.5275 5.60201 12.4628 5.53736C12.3982 5.4727 12.3214 5.42142 12.2369 5.38643C12.1525 5.35144 12.0619 5.33343 11.9705 5.33343C11.8791 5.33343 11.7885 5.35144 11.704 5.38643C11.6196 5.42142 11.5428 5.4727 11.4782 5.53736L7.99816 9.01736L4.52083 5.53736C4.45625 5.47269 4.37956 5.42139 4.29514 5.38639C4.21071 5.35139 4.12022 5.33337 4.02883 5.33337C3.93744 5.33337 3.84695 5.35139 3.76253 5.38639C3.6781 5.42139 3.60141 5.47269 3.53683 5.53736Z" fill="black"/>
</svg>
