<svg width="206" height="49" viewBox="0 0 206 49" fill="none" xmlns="http://www.w3.org/2000/svg">
<path d="M35.7029 44.7025L32.904 41.4837H31.8281V46.7883H33.1143V43.5695L35.9213 46.7883H36.9891V41.4837H35.7029V44.7025Z" fill="#1F2F98"/>
<path d="M40.3842 42.6524C40.0417 42.6524 39.702 42.6956 39.3703 42.7819C39.0386 42.8683 38.7528 42.9877 38.5182 43.1452L38.9685 43.9709C39.1249 43.854 39.3137 43.7626 39.5348 43.694C39.7559 43.6254 39.9824 43.5924 40.2143 43.5924C40.5514 43.5924 40.8021 43.6635 40.9666 43.8058C41.1311 43.948 41.212 44.1436 41.212 44.3977H40.2143C39.7748 44.3977 39.4188 44.4485 39.1438 44.5527C38.8715 44.6568 38.6692 44.7991 38.5452 44.9795C38.4185 45.1624 38.3564 45.3732 38.3564 45.6171C38.3564 45.861 38.4212 46.0592 38.5506 46.2446C38.68 46.4326 38.8634 46.58 39.1061 46.6867C39.346 46.7959 39.6373 46.8493 39.9743 46.8493C40.3545 46.8493 40.6673 46.7807 40.9073 46.6435C41.0718 46.5495 41.1985 46.425 41.2929 46.2751V46.7883H42.4685V44.4612C42.4685 43.8388 42.2852 43.384 41.9212 43.0893C41.5571 42.7972 41.0448 42.6498 40.3842 42.6498V42.6524ZM41.212 45.5003C41.1365 45.6832 41.0151 45.8204 40.8507 45.9144C40.6835 46.0084 40.4974 46.0541 40.2871 46.0541C40.0687 46.0541 39.8934 46.0109 39.7694 45.922C39.6427 45.8331 39.5806 45.7137 39.5806 45.5612C39.5806 45.4241 39.6346 45.3123 39.7451 45.2208C39.8557 45.1294 40.0579 45.0836 40.3518 45.0836H41.212V45.5003Z" fill="#1F2F98"/>
<path d="M45.7689 45.4875L44.5716 42.7107H43.2773L45.0948 46.7882H46.389L48.2145 42.7107H47.0092L45.7689 45.4875Z" fill="#1F2F98"/>
<path d="M50.3847 42.7107H49.1309V46.7856H50.3847V42.7107Z" fill="#1F2F98"/>
<path d="M49.7597 40.8256C49.5278 40.8256 49.3418 40.8891 49.1962 41.0161C49.0506 41.1431 48.9805 41.2981 48.9805 41.4861C48.9805 41.6741 49.0533 41.8291 49.1962 41.9561C49.3418 42.0831 49.5278 42.1466 49.7597 42.1466C49.9916 42.1466 50.1858 42.0831 50.326 41.9535C50.4662 41.824 50.539 41.6614 50.539 41.4658C50.539 41.2701 50.4662 41.1253 50.3233 41.0085C50.1804 40.8916 49.9916 40.8306 49.7597 40.8306V40.8256Z" fill="#1F2F98"/>
<path d="M55.2282 43.2342C55.0987 43.0766 54.945 42.9496 54.7617 42.8582C54.4839 42.7184 54.1604 42.6498 53.7963 42.6498C53.3946 42.6498 53.0306 42.7311 52.707 42.8912C52.3834 43.0538 52.1219 43.2824 51.9277 43.5771C51.7309 43.8718 51.6338 44.2199 51.6338 44.6187C51.6338 45.0176 51.7309 45.358 51.9277 45.6527C52.1219 45.9474 52.3834 46.1786 52.707 46.3412C53.0306 46.5063 53.3946 46.5876 53.7963 46.5876C54.1604 46.5876 54.4839 46.5165 54.7617 46.3742C54.9154 46.2954 55.0475 46.1938 55.1635 46.0719V46.2548C55.1635 46.6232 55.0637 46.9026 54.8614 47.0881C54.6619 47.2761 54.3383 47.3675 53.8934 47.3675C53.6211 47.3675 53.3433 47.3269 53.0602 47.2431C52.7798 47.1592 52.5479 47.0474 52.3645 46.9052L51.8657 47.7537C52.1165 47.9417 52.4319 48.0814 52.8094 48.1729C53.1869 48.2669 53.5806 48.3126 53.9878 48.3126C54.7698 48.3126 55.3711 48.1322 55.789 47.774C56.207 47.4158 56.4146 46.8569 56.4146 46.0998V42.7057H55.2255V43.2291L55.2282 43.2342ZM55.034 45.1446C54.9369 45.297 54.8048 45.4139 54.6322 45.4977C54.4597 45.5816 54.2655 45.6222 54.0444 45.6222C53.8233 45.6222 53.6292 45.5816 53.4566 45.4977C53.284 45.4139 53.1492 45.297 53.0494 45.1446C52.9497 44.9922 52.9011 44.8194 52.9011 44.6213C52.9011 44.4231 52.9497 44.2427 53.0494 44.0954C53.1492 43.9455 53.284 43.8312 53.4566 43.7473C53.6292 43.6635 53.8233 43.6228 54.0444 43.6228C54.2655 43.6228 54.4597 43.6635 54.6322 43.7473C54.8048 43.8312 54.9369 43.948 55.034 44.0954C55.1311 44.2453 55.1796 44.4206 55.1796 44.6213C55.1796 44.822 55.1311 44.9922 55.034 45.1446Z" fill="#1F2F98"/>
<path d="M59.7309 42.6524C59.3884 42.6524 59.0487 42.6956 58.717 42.7819C58.3853 42.8683 58.0995 42.9877 57.8649 43.1452L58.3152 43.9709C58.4716 43.854 58.6604 43.7626 58.8815 43.694C59.1026 43.6254 59.3291 43.5924 59.561 43.5924C59.898 43.5924 60.1488 43.6635 60.3133 43.8058C60.4778 43.948 60.5587 44.1436 60.5587 44.3977H59.561C59.1215 44.3977 58.7655 44.4485 58.4905 44.5527C58.2181 44.6568 58.0159 44.7991 57.8919 44.9795C57.7651 45.1624 57.7031 45.3732 57.7031 45.6171C57.7031 45.861 57.7678 46.0592 57.8973 46.2446C58.0267 46.4326 58.2101 46.58 58.4527 46.6867C58.6927 46.7959 58.9839 46.8493 59.321 46.8493C59.7012 46.8493 60.014 46.7807 60.254 46.6435C60.4185 46.5495 60.5452 46.425 60.6396 46.2751V46.7883H61.8152V44.4612C61.8152 43.8388 61.6319 43.384 61.2678 43.0893C60.9038 42.7972 60.3915 42.6498 59.7309 42.6498V42.6524ZM60.5587 45.5003C60.4832 45.6832 60.3618 45.8204 60.1973 45.9144C60.0302 46.0084 59.8441 46.0541 59.6338 46.0541C59.4154 46.0541 59.2401 46.0109 59.1161 45.922C58.9893 45.8331 58.9273 45.7137 58.9273 45.5612C58.9273 45.4241 58.9812 45.3123 59.0918 45.2208C59.2024 45.1294 59.4046 45.0836 59.6985 45.0836H60.5587V45.5003Z" fill="#1F2F98"/>
<path d="M65.2939 45.9091C65.1267 45.9091 64.9973 45.8633 64.9002 45.7693C64.8031 45.6754 64.7546 45.5432 64.7546 45.3705V43.7115H65.8332V42.802H64.7546V41.8087H63.5008V42.802H62.832V43.7115H63.5008V45.3857C63.5008 45.871 63.6437 46.2368 63.9268 46.4807C64.2099 46.7246 64.6063 46.8491 65.1159 46.8491C65.3101 46.8491 65.4961 46.8262 65.6741 46.7855C65.8521 46.7449 66.0085 46.6788 66.1352 46.5925L65.7981 45.7592C65.6579 45.8608 65.4907 45.9116 65.2912 45.9116L65.2939 45.9091Z" fill="#1F2F98"/>
<path d="M70.2442 42.9039C69.9044 42.7337 69.5215 42.6498 69.0982 42.6498C68.6749 42.6498 68.265 42.7388 67.9172 42.9191C67.5693 43.0995 67.2943 43.3459 67.092 43.661C66.8898 43.976 66.79 44.3393 66.79 44.7483C66.79 45.1573 66.8925 45.513 67.0947 45.828C67.297 46.143 67.5855 46.392 67.9603 46.5749C68.3324 46.7578 68.7665 46.8467 69.26 46.8467C69.651 46.8467 69.9961 46.7908 70.2981 46.6765C70.5974 46.5622 70.8482 46.3996 71.045 46.1887L70.379 45.5079C70.2334 45.64 70.0743 45.7365 69.899 45.8026C69.7238 45.8686 69.5215 45.9017 69.2923 45.9017C69.0362 45.9017 68.8097 45.8585 68.6209 45.7696C68.4295 45.6807 68.2839 45.5536 68.1787 45.3834C68.1221 45.292 68.0843 45.1903 68.0574 45.0836H71.3255C71.3309 45.0328 71.3363 44.9795 71.3417 44.921C71.347 44.8626 71.3497 44.8118 71.3497 44.7661C71.3497 44.3266 71.25 43.948 71.0531 43.633C70.8536 43.318 70.5839 43.0741 70.2442 42.9064V42.9039ZM68.0466 44.3926C68.0682 44.2681 68.1005 44.1487 68.1598 44.0471C68.2515 43.8871 68.3783 43.7651 68.5427 43.6762C68.7072 43.5873 68.896 43.5441 69.109 43.5441C69.322 43.5441 69.5108 43.5873 69.6725 43.6762C69.8343 43.7651 69.9584 43.8871 70.0501 44.0446C70.1094 44.1462 70.1417 44.2656 70.1633 44.3926H68.0493H68.0466Z" fill="#1F2F98"/>
<path d="M77.4567 43.8387L75.9575 41.4837H74.5742L76.753 44.8981V46.7883H78.0553V44.9108L80.2422 41.4837H78.964L77.4567 43.8387Z" fill="#1F2F98"/>
<path d="M83.9023 42.9191C83.5436 42.7388 83.1365 42.6498 82.6808 42.6498C82.2251 42.6498 81.8098 42.7388 81.4539 42.9191C81.098 43.0995 80.8148 43.3459 80.6099 43.661C80.4023 43.976 80.2998 44.3393 80.2998 44.7483C80.2998 45.1573 80.4023 45.513 80.6099 45.828C80.8175 46.143 81.098 46.392 81.4539 46.5749C81.8098 46.7578 82.2197 46.8467 82.6808 46.8467C83.1419 46.8467 83.5436 46.7553 83.9023 46.5749C84.2609 46.392 84.544 46.1456 84.7463 45.828C84.9485 45.5104 85.051 45.1522 85.051 44.7483C85.051 44.3443 84.9485 43.9709 84.7463 43.6584C84.5413 43.3459 84.2609 43.0995 83.9023 42.9191ZM83.638 45.3504C83.5409 45.5206 83.4088 45.6502 83.2443 45.7416C83.0771 45.8331 82.8911 45.8788 82.6808 45.8788C82.4704 45.8788 82.2844 45.8331 82.1172 45.7416C81.95 45.6502 81.8179 45.5206 81.7181 45.3504C81.6184 45.1802 81.5698 44.9795 81.5698 44.7483C81.5698 44.5171 81.6184 44.3088 81.7181 44.1411C81.8179 43.9734 81.95 43.8464 82.1172 43.755C82.2844 43.6635 82.4704 43.6178 82.6808 43.6178C82.8911 43.6178 83.0771 43.6635 83.2443 43.755C83.4115 43.8464 83.5409 43.9734 83.638 44.1411C83.7351 44.3088 83.7836 44.5095 83.7836 44.7483C83.7836 44.9871 83.7351 45.1802 83.638 45.3504Z" fill="#1F2F98"/>
<path d="M89.3945 44.7278C89.3945 44.9743 89.3513 45.1826 89.2651 45.3452C89.1788 45.5103 89.0601 45.6297 88.9118 45.7085C88.7608 45.7872 88.5909 45.8253 88.3968 45.8253C88.1191 45.8253 87.9033 45.7466 87.7497 45.5865C87.596 45.4265 87.5205 45.1775 87.5205 44.8396V42.7107H86.2666V45.0149C86.2666 45.4341 86.3448 45.7796 86.4985 46.0489C86.6549 46.3182 86.8733 46.5189 87.1537 46.651C87.4342 46.7831 87.755 46.8492 88.1137 46.8492C88.4453 46.8492 88.7527 46.778 89.0332 46.6332C89.1976 46.5494 89.3379 46.4376 89.4565 46.3055V46.7882H90.6456V42.7132H89.3918V44.7278H89.3945Z" fill="#1F2F98"/>
<path d="M93.415 43.2544V42.7133H92.2178V46.7882H93.4716V44.8651C93.4716 44.4764 93.5768 44.1893 93.7898 44.0038C94.0028 43.8184 94.2779 43.7269 94.623 43.7269C94.6715 43.7269 94.7174 43.7269 94.7605 43.732C94.8037 43.7371 94.8522 43.7371 94.9061 43.7422V42.6523C94.499 42.6523 94.1538 42.726 93.868 42.8758C93.6846 42.9724 93.5363 43.1019 93.4177 43.2544H93.415Z" fill="#1F2F98"/>
<path d="M100.325 42.9088C100.486 42.7563 100.675 42.642 100.896 42.5607C101.115 42.4794 101.357 42.4388 101.619 42.4388C101.897 42.4388 102.155 42.4896 102.39 42.5937C102.625 42.6979 102.84 42.8529 103.034 43.0587L103.87 42.3321C103.603 42.0247 103.272 41.7909 102.878 41.6309C102.484 41.4708 102.042 41.3921 101.554 41.3921C101.115 41.3921 100.71 41.4581 100.341 41.5928C99.9713 41.7274 99.6477 41.918 99.3727 42.1644C99.0976 42.4108 98.8819 42.703 98.7282 43.0358C98.5745 43.3686 98.499 43.7344 98.499 44.1333C98.499 44.5321 98.5745 44.898 98.7282 45.2308C98.8819 45.5636 99.0949 45.8557 99.3673 46.1022C99.6396 46.3486 99.9632 46.5417 100.335 46.6738C100.707 46.8084 101.112 46.8745 101.546 46.8745C102.039 46.8745 102.482 46.7932 102.878 46.6331C103.272 46.4705 103.603 46.2368 103.87 45.9294L103.034 45.2028C102.843 45.4162 102.627 45.5737 102.39 45.6754C102.153 45.7795 101.897 45.8303 101.619 45.8303C101.355 45.8303 101.115 45.7897 100.896 45.7084C100.675 45.6271 100.486 45.5128 100.325 45.3603C100.163 45.2079 100.039 45.0301 99.9497 44.8218C99.8607 44.616 99.8176 44.3848 99.8176 44.1333C99.8176 43.8818 99.8607 43.6506 99.9497 43.4448C100.039 43.2365 100.163 43.0587 100.325 42.9062V42.9088Z" fill="#1F2F98"/>
<path d="M106.774 42.6524C106.431 42.6524 106.092 42.6956 105.76 42.7819C105.428 42.8683 105.142 42.9877 104.908 43.1452L105.358 43.9709C105.515 43.854 105.703 43.7626 105.924 43.694C106.146 43.6254 106.372 43.5924 106.604 43.5924C106.941 43.5924 107.192 43.6635 107.356 43.8058C107.521 43.948 107.602 44.1436 107.602 44.3977H106.604C106.164 44.3977 105.808 44.4485 105.533 44.5527C105.261 44.6568 105.059 44.7991 104.935 44.9795C104.808 45.1624 104.746 45.3732 104.746 45.6171C104.746 45.861 104.811 46.0592 104.94 46.2446C105.07 46.4326 105.253 46.58 105.496 46.6867C105.736 46.7959 106.027 46.8493 106.364 46.8493C106.744 46.8493 107.057 46.7807 107.297 46.6435C107.461 46.5495 107.588 46.425 107.683 46.2751V46.7883H108.858V44.4612C108.858 43.8388 108.675 43.384 108.311 43.0893C107.947 42.7972 107.434 42.6498 106.774 42.6498V42.6524ZM107.602 45.5003C107.526 45.6832 107.405 45.8204 107.24 45.9144C107.073 46.0084 106.887 46.0541 106.677 46.0541C106.458 46.0541 106.283 46.0109 106.159 45.922C106.032 45.8331 105.97 45.7137 105.97 45.5612C105.97 45.4241 106.024 45.3123 106.135 45.2208C106.245 45.1294 106.448 45.0836 106.741 45.0836H107.602V45.5003Z" fill="#1F2F98"/>
<path d="M116.845 42.8454C116.581 42.7158 116.276 42.6523 115.931 42.6523C115.519 42.6523 115.152 42.7463 114.834 42.9317C114.65 43.0384 114.499 43.1705 114.375 43.3204C114.275 43.1655 114.146 43.0359 113.99 42.9368C113.693 42.7463 113.345 42.6523 112.949 42.6523C112.596 42.6523 112.28 42.7234 112.005 42.8682C111.846 42.9521 111.708 43.0613 111.59 43.1883V42.7133H110.393V46.7882H111.646V44.7431C111.646 44.5018 111.687 44.3011 111.768 44.1436C111.849 43.986 111.962 43.8692 112.105 43.7904C112.25 43.7117 112.412 43.6736 112.596 43.6736C112.857 43.6736 113.059 43.7523 113.202 43.9073C113.345 44.0648 113.415 44.3061 113.415 44.6339V46.7857H114.669V44.7406C114.669 44.4992 114.71 44.2985 114.79 44.141C114.871 43.9835 114.982 43.8666 115.128 43.7879C115.273 43.7091 115.435 43.671 115.618 43.671C115.88 43.671 116.085 43.7498 116.23 43.9047C116.376 44.0623 116.446 44.3036 116.446 44.6313V46.7831H117.7V44.4484C117.7 44.0343 117.624 43.6939 117.471 43.4297C117.317 43.1655 117.109 42.9673 116.845 42.8377V42.8454Z" fill="#1F2F98"/>
<path d="M122.885 42.9115C122.562 42.7362 122.195 42.6498 121.788 42.6498C121.407 42.6498 121.081 42.7261 120.806 42.8759C120.661 42.9547 120.537 43.0589 120.429 43.1833V42.7108H119.231V48.2567H120.485V46.3513C120.588 46.458 120.701 46.5495 120.83 46.6206C121.103 46.7731 121.424 46.8467 121.788 46.8467C122.195 46.8467 122.562 46.7604 122.885 46.5901C123.209 46.4174 123.468 46.176 123.656 45.8636C123.848 45.5511 123.942 45.1802 123.942 44.7508C123.942 44.3215 123.848 43.9582 123.656 43.6457C123.465 43.3332 123.209 43.0893 122.885 42.9141V42.9115ZM122.524 45.3504C122.424 45.5206 122.295 45.6502 122.13 45.7416C121.966 45.8331 121.78 45.8788 121.572 45.8788C121.364 45.8788 121.176 45.8331 121.008 45.7416C120.841 45.6502 120.712 45.5206 120.615 45.3504C120.518 45.1802 120.469 44.9795 120.469 44.7483C120.469 44.5171 120.518 44.3088 120.615 44.1411C120.712 43.9734 120.844 43.8464 121.008 43.755C121.176 43.6635 121.362 43.6178 121.572 43.6178C121.782 43.6178 121.968 43.6635 122.13 43.755C122.295 43.8464 122.424 43.9734 122.524 44.1411C122.624 44.3088 122.672 44.5095 122.672 44.7483C122.672 44.9871 122.624 45.1802 122.524 45.3504Z" fill="#1F2F98"/>
<path d="M128.283 44.7278C128.283 44.9743 128.24 45.1826 128.154 45.3452C128.067 45.5103 127.949 45.6297 127.8 45.7085C127.649 45.7872 127.48 45.8253 127.285 45.8253C127.008 45.8253 126.792 45.7466 126.638 45.5865C126.485 45.4265 126.409 45.1775 126.409 44.8396V42.7107H125.155V45.0149C125.155 45.4341 125.233 45.7796 125.387 46.0489C125.544 46.3182 125.762 46.5189 126.042 46.651C126.323 46.7831 126.644 46.8492 127.002 46.8492C127.334 46.8492 127.641 46.778 127.922 46.6332C128.086 46.5494 128.227 46.4376 128.345 46.3055V46.7882H129.534V42.7132H128.28V44.7278H128.283Z" fill="#1F2F98"/>
<path d="M134.086 44.6466C133.933 44.5627 133.763 44.4992 133.577 44.4535C133.391 44.4078 133.202 44.3747 133.018 44.3519C132.832 44.329 132.663 44.3036 132.509 44.2731C132.352 44.2426 132.228 44.202 132.134 44.1512C132.04 44.1004 131.994 44.0241 131.994 43.9251C131.994 43.8133 132.059 43.7218 132.188 43.6532C132.317 43.5821 132.52 43.5465 132.8 43.5465C132.997 43.5465 133.204 43.5669 133.415 43.6101C133.628 43.6532 133.838 43.732 134.046 43.8489L134.464 43.008C134.259 42.8911 134.005 42.8047 133.701 42.7437C133.396 42.6828 133.094 42.6523 132.8 42.6523C132.382 42.6523 132.023 42.7082 131.721 42.8225C131.422 42.9368 131.19 43.0918 131.034 43.2874C130.877 43.483 130.797 43.7117 130.797 43.9683C130.797 44.1994 130.845 44.39 130.937 44.5373C131.031 44.6847 131.155 44.799 131.312 44.8854C131.468 44.9718 131.638 45.0353 131.827 45.0785C132.015 45.1216 132.201 45.1547 132.385 45.1801C132.571 45.2055 132.741 45.2309 132.894 45.2563C133.051 45.2817 133.175 45.3173 133.269 45.3655C133.364 45.4138 133.409 45.4849 133.409 45.5815C133.409 45.6983 133.35 45.7898 133.229 45.8533C133.107 45.9194 132.902 45.9524 132.614 45.9524C132.35 45.9524 132.085 45.9168 131.813 45.8431C131.543 45.7695 131.309 45.6755 131.109 45.5586L130.691 46.4071C130.888 46.5342 131.158 46.6383 131.5 46.7222C131.84 46.806 132.196 46.8466 132.565 46.8466C133 46.8466 133.369 46.7907 133.671 46.679C133.973 46.5672 134.205 46.4148 134.367 46.2217C134.528 46.0286 134.607 45.8025 134.607 45.551C134.607 45.3198 134.558 45.1318 134.461 44.987C134.364 44.8422 134.24 44.7304 134.086 44.6466Z" fill="#1F2F98"/>
<path d="M139.845 41.4837H138.543V46.7883H139.845V41.4837Z" fill="#1F2F98"/>
<path d="M145.045 42.8454C144.775 42.7158 144.468 42.6523 144.125 42.6523C143.756 42.6523 143.427 42.726 143.136 42.8708C142.96 42.9597 142.82 43.0791 142.693 43.2112V42.7107H141.496V46.7857H142.75V44.7711C142.75 44.5195 142.793 44.3112 142.882 44.1486C142.971 43.986 143.092 43.8666 143.251 43.7879C143.411 43.7091 143.589 43.671 143.785 43.671C144.063 43.671 144.279 43.7498 144.433 43.9047C144.586 44.0623 144.662 44.3036 144.662 44.6313V46.7831H145.916V44.4484C145.916 44.0343 145.837 43.6939 145.684 43.4297C145.527 43.1655 145.314 42.9673 145.045 42.8377V42.8454Z" fill="#1F2F98"/>
<path d="M155.48 41.4837L153.407 44.7762L151.298 41.4837H150.22V46.7883H151.444V43.6736L153.091 46.2268H153.679L155.335 43.605L155.343 46.7883H156.564L156.548 41.4837H155.48Z" fill="#1F2F98"/>
<path d="M159.958 42.6524C159.616 42.6524 159.276 42.6956 158.945 42.7819C158.613 42.8683 158.327 42.9877 158.092 43.1452L158.543 43.9709C158.699 43.854 158.888 43.7626 159.109 43.694C159.33 43.6254 159.557 43.5924 159.789 43.5924C160.126 43.5924 160.376 43.6635 160.541 43.8058C160.705 43.948 160.786 44.1436 160.786 44.3977H159.789C159.349 44.3977 158.993 44.4485 158.718 44.5527C158.446 44.6568 158.243 44.7991 158.119 44.9795C157.993 45.1624 157.931 45.3732 157.931 45.6171C157.931 45.861 157.995 46.0592 158.125 46.2446C158.254 46.4326 158.438 46.58 158.68 46.6867C158.92 46.7959 159.211 46.8493 159.549 46.8493C159.929 46.8493 160.242 46.7807 160.482 46.6435C160.646 46.5495 160.773 46.425 160.867 46.2751V46.7883H162.043V44.4612C162.043 43.8388 161.859 43.384 161.495 43.0893C161.131 42.7972 160.619 42.6498 159.958 42.6498V42.6524ZM160.786 45.5003C160.711 45.6832 160.589 45.8204 160.425 45.9144C160.258 46.0084 160.072 46.0541 159.861 46.0541C159.643 46.0541 159.468 46.0109 159.344 45.922C159.217 45.8331 159.155 45.7137 159.155 45.5612C159.155 45.4241 159.209 45.3123 159.319 45.2208C159.43 45.1294 159.632 45.0836 159.926 45.0836H160.786V45.5003Z" fill="#1F2F98"/>
<path d="M167.067 43.4246V42.7107H163.335V43.6202H165.481L163.278 46.0743V46.7882H167.14V45.8787H164.864L167.067 43.4246Z" fill="#1F2F98"/>
<path d="M172.23 43.6329C172.03 43.3179 171.761 43.074 171.421 42.9063C171.081 42.7361 170.698 42.6523 170.275 42.6523C169.852 42.6523 169.442 42.7412 169.094 42.9216C168.746 43.1019 168.471 43.3484 168.269 43.6634C168.067 43.9784 167.967 44.3417 167.967 44.7507C167.967 45.1597 168.069 45.5154 168.271 45.8304C168.474 46.1455 168.762 46.3944 169.137 46.5773C169.509 46.7603 169.943 46.8492 170.437 46.8492C170.828 46.8492 171.173 46.7933 171.475 46.679C171.774 46.5646 172.025 46.402 172.222 46.1912L171.556 45.5103C171.41 45.6424 171.251 45.739 171.076 45.805C170.901 45.8711 170.698 45.9041 170.469 45.9041C170.213 45.9041 169.986 45.8609 169.798 45.772C169.606 45.6831 169.461 45.5561 169.355 45.3859C169.299 45.2944 169.261 45.1928 169.234 45.0861H172.502C172.508 45.0353 172.513 44.9819 172.518 44.9235C172.524 44.8651 172.527 44.8142 172.527 44.7685C172.527 44.329 172.427 43.9505 172.23 43.6355V43.6329ZM169.223 44.3951C169.245 44.2706 169.277 44.1512 169.337 44.0496C169.428 43.8895 169.555 43.7676 169.719 43.6786C169.884 43.5897 170.073 43.5465 170.286 43.5465C170.499 43.5465 170.688 43.5897 170.849 43.6786C171.011 43.7676 171.135 43.8895 171.227 44.047C171.286 44.1486 171.318 44.268 171.34 44.3951H169.226H169.223Z" fill="#1F2F98"/>
<path d="M205.743 44.4127H175.219V44.7321H205.743V44.4127Z" fill="#1F2F98"/>
<path d="M161.602 36.2576H156.724L156.697 31.2579L154.27 35.1017H151.854L149.438 31.4281V36.2576H144.561V22.7701H148.878L153.122 29.2941L157.245 22.7701H161.564L161.605 36.2576H161.602ZM157.415 35.6022H160.904L160.866 23.423H157.636L153.127 30.5593L148.487 23.423H145.254V35.6022H148.743V29.129L152.24 34.4488H153.874L157.377 28.8953L157.415 35.6047V35.6022Z" fill="#1F2F98"/>
<path d="M179.501 36.2576H173.981L173.07 34.022H168.367L167.453 36.2576H162.012L168.27 22.7701H173.24L179.498 36.2576H179.501ZM174.461 35.6022H178.439L172.789 23.423H168.729L163.077 35.6022H166.976L167.89 33.3665H173.547L174.459 35.6022H174.461ZM172.544 30.9048H168.896L170.721 26.431L172.547 30.9048H172.544ZM169.907 30.2494H171.533L170.719 28.2551L169.904 30.2494H169.907Z" fill="#1F2F98"/>
<path d="M193.123 36.2576H179.916V33.1506L185.724 26.779H180.11V22.7701H192.81V25.8772L187.002 32.2487H193.123V36.2576ZM180.612 35.6022H192.428V32.9016H185.49L192.117 25.6333V23.423H180.806V26.1236H187.24L180.612 33.3919V35.6022Z" fill="#1F2F98"/>
<path d="M205.743 36.2576H193.723V22.7701H205.49V26.6876H198.932V27.5361H204.692V31.3087H198.932V32.3402H205.743V36.2576ZM194.418 35.6022H205.048V32.9931H198.237V30.6533H203.996V28.1916H198.237V26.0347H204.794V23.4256H194.418V35.6047V35.6022Z" fill="#1F2F98"/>
<path d="M142.608 28.0442C142.608 29.7768 142.084 31.3697 141.035 32.8153C139.987 34.2634 138.428 35.4294 136.36 36.3059C134.292 37.1875 131.69 37.6244 128.559 37.6244C126.032 37.6244 123.589 37.3551 121.235 36.8166C118.881 36.2729 116.943 35.5692 115.422 34.7054L118.693 27.7216C119.248 28.029 119.831 28.3084 120.44 28.565C120.607 28.6362 120.78 28.7098 120.955 28.7734C121.09 28.8292 121.23 28.8851 121.37 28.9309C121.492 28.9817 121.613 29.0249 121.74 29.068C121.858 29.1112 121.974 29.1544 122.093 29.1875C122.22 29.2306 122.346 29.2738 122.476 29.3119C122.67 29.3754 122.869 29.4364 123.066 29.4898L125.588 31.7203C125.588 31.7203 125.512 30.8515 125.374 30.0309C125.482 30.0512 125.59 30.069 125.701 30.0868C125.868 30.1122 126.041 30.1376 126.208 30.1579C126.388 30.1833 126.569 30.2036 126.75 30.2214C126.909 30.2392 127.062 30.2545 127.216 30.2646C127.338 30.2773 127.459 30.2849 127.583 30.29C127.731 30.3027 127.877 30.3078 128.02 30.3104C128.233 30.318 128.44 30.3231 128.648 30.3231C129.624 30.3231 130.393 30.2595 130.951 30.1401C131.512 30.0157 131.919 29.8429 132.18 29.6117C132.439 29.3831 132.569 29.1011 132.569 28.7784C132.569 28.2627 132.267 27.8588 131.66 27.5615C131.059 27.2643 130.26 27.0128 129.271 26.8121C128.281 26.6089 127.192 26.3904 126.019 26.1617C124.841 25.9331 123.657 25.6257 122.465 25.2471C121.273 24.8686 120.178 24.3707 119.189 23.7457C119.027 23.6441 118.868 23.5374 118.714 23.418C119.189 22.1528 119.429 20.7708 119.429 19.2821C119.429 16.8432 118.787 14.6812 117.517 12.8622C117.49 12.819 117.458 12.7809 117.428 12.7378C117.436 12.72 117.45 12.6996 117.463 12.6819C118.515 11.2338 120.079 10.0779 122.16 9.21409C124.242 8.35032 126.836 7.91589 129.94 7.91589C131.978 7.91589 133.987 8.11659 135.972 8.52561C137.956 8.92955 139.736 9.55451 141.316 10.3903L138.253 17.336C136.762 16.6298 135.316 16.1014 133.925 15.7533C132.528 15.4002 131.175 15.2224 129.853 15.2224C128.872 15.2224 128.101 15.3087 127.526 15.4688C126.949 15.6314 126.542 15.8473 126.297 16.1166C126.054 16.3884 125.93 16.6882 125.93 17.0109C125.93 17.5012 126.229 17.8823 126.833 18.1693C127.437 18.4539 128.233 18.6927 129.222 18.8807C129.484 18.9315 129.751 18.9797 130.026 19.0331C129.597 19.6454 129.222 20.2729 129.185 20.3364L132.108 19.4167H132.113C132.24 19.4421 132.366 19.4624 132.496 19.4878C133.688 19.7038 134.871 20.0036 136.052 20.3821C137.231 20.7606 138.315 21.2586 139.304 21.8835C140.299 22.506 141.092 23.3189 141.693 24.3173C142.297 25.3183 142.602 26.5657 142.602 28.0493L142.608 28.0442Z" fill="url(#paint0_linear_535_940)"/>
<path d="M118.007 18.4691C117.999 18.337 117.988 18.2049 117.975 18.0779C117.967 17.9839 117.956 17.8873 117.942 17.7933C117.929 17.6917 117.915 17.5901 117.896 17.491C117.878 17.3767 117.861 17.2624 117.837 17.1455C117.818 17.0642 117.805 16.9829 117.789 16.9067C117.775 16.8254 117.756 16.7441 117.735 16.6628C117.735 16.6552 117.729 16.645 117.729 16.6323C117.724 16.612 117.716 16.5866 117.71 16.5637C117.675 16.4266 117.638 16.2919 117.592 16.1547C117.559 16.048 117.524 15.9413 117.487 15.8346C117.419 15.6212 117.341 15.418 117.252 15.2122C117.206 15.1106 117.16 15.009 117.117 14.9099C117.071 14.8083 117.023 14.7092 116.972 14.6126C116.92 14.5161 116.866 14.417 116.813 14.3179C116.759 14.2239 116.705 14.1274 116.645 14.0334C116.554 13.8759 116.451 13.7235 116.346 13.5685C116.246 13.4237 116.144 13.2865 116.033 13.1519C115.971 13.0629 115.901 12.9766 115.831 12.8953C115.818 12.8775 115.804 12.8622 115.791 12.8445C115.777 12.8267 115.764 12.814 115.75 12.7987C115.742 12.7911 115.737 12.7809 115.729 12.7733C115.661 12.6971 115.596 12.6234 115.526 12.5472C115.467 12.4786 115.4 12.41 115.338 12.3465C115.192 12.1966 115.049 12.0569 114.895 11.9172C114.82 11.8486 114.742 11.78 114.661 11.7139C114.585 11.6453 114.502 11.5818 114.418 11.5132C114.343 11.4497 114.259 11.3862 114.178 11.3252C114.092 11.2617 114.006 11.1982 113.917 11.1347C113.741 11.0102 113.563 10.8908 113.38 10.7765C113.226 10.6825 113.067 10.5885 112.905 10.4945C112.86 10.4691 112.814 10.4488 112.771 10.4183C112.63 10.3446 112.485 10.2684 112.342 10.1973C112.274 10.1642 112.202 10.1287 112.129 10.0982C112.04 10.055 111.954 10.0118 111.862 9.9737C111.776 9.93051 111.687 9.89241 111.589 9.8543C109.535 8.98545 107.103 8.55103 104.29 8.55103H93.6904L93.7713 36.9664V36.9715H99.9327V29.9877H104.287C107.103 29.9877 109.532 29.5482 111.587 28.6692C113.641 27.7927 115.227 26.553 116.349 24.9575C116.502 24.7416 116.643 24.518 116.772 24.2894C116.821 24.2056 116.872 24.1141 116.918 24.0303C116.966 23.9439 117.009 23.86 117.052 23.7711C117.074 23.7254 117.098 23.6771 117.12 23.6314C117.16 23.545 117.195 23.4612 117.233 23.3748C117.282 23.2605 117.333 23.1462 117.379 23.0268C117.457 22.8184 117.532 22.605 117.594 22.3891C117.883 21.4262 118.029 20.3897 118.029 19.2745C118.029 19.0026 118.021 18.7308 118.002 18.4666L118.007 18.4691ZM106.768 21.7159C106.091 22.3078 105.051 22.605 103.643 22.605H99.9381V15.9489H103.643C105.053 15.9489 106.091 16.2462 106.768 16.8432C107.442 17.4402 107.779 18.2532 107.779 19.277C107.779 20.3008 107.44 21.1188 106.768 21.7159Z" fill="url(#paint1_linear_535_940)"/>
<path d="M92.3888 36.9792H83.1238L83.051 24.015L76.4878 34.4209H72.009L65.4594 24.4647V36.9792H62.9463L62.7036 36.4558L56.1943 22.4221V8.55865H64.5506L74.39 23.6873L83.9462 8.55865H92.3025L92.3888 36.9792Z" fill="url(#paint2_linear_535_940)"/>
<path d="M56.1946 25.6916L54.8086 22.6989L49.1568 10.5121C47.2504 11.1422 45.4654 11.7367 43.9338 12.2498C43.6722 12.3388 43.4134 12.3819 43.1572 12.3819C42.901 12.3819 42.6233 12.3362 42.3429 12.2422C40.7115 11.6986 39.0316 11.1346 37.3194 10.5706L34.5447 16.5433C34.6391 16.9853 34.7308 17.4274 34.8252 17.8669C34.9195 18.3013 34.9843 18.8424 34.658 19.2159C34.3317 19.5944 33.7358 19.6452 33.2585 19.6452H33.2397C33.1938 19.6452 33.1534 19.6452 33.1075 19.6401L28.8067 28.9053L31.2605 30.9657L32.2312 31.7837L31.4357 32.7491C29.9823 34.5122 28.1595 35.9323 26.0186 36.979H35.4049L37.4246 32.025H48.8953L50.9149 36.979H61.4284L56.1919 25.6916H56.1946ZM40.2423 25.1251L43.1599 17.966L46.0829 25.1251H40.2423Z" fill="url(#paint3_linear_535_940)"/>
<path d="M28.2238 30.1656L30.3378 31.9439C29.0678 33.4835 27.5146 34.7283 25.6702 35.6683H25.6648C25.3386 35.8385 25.0096 35.996 24.6672 36.1459C24.3732 36.2729 24.0766 36.3923 23.7692 36.5041C21.7038 37.2536 19.3875 37.627 16.807 37.627C14.3937 37.627 12.1583 37.2688 10.1063 36.5549C8.05161 35.836 6.27195 34.8147 4.76194 33.486C3.25192 32.1624 2.08436 30.5924 1.25115 28.7785C0.415254 26.9646 0 24.9652 0 22.7727C0 20.5803 0.415254 18.5758 1.25115 16.7619C2.08166 14.948 3.25192 13.378 4.76194 12.0544C6.27195 10.7257 8.05161 9.70444 10.1063 8.98548C12.1583 8.2716 14.3937 7.91339 16.807 7.91339C19.765 7.91339 22.386 8.39863 24.6672 9.37418C26.9538 10.3497 28.8413 11.7572 30.3378 13.5965L23.9175 18.9976C23.0223 17.9433 22.0435 17.1201 20.9622 16.5409C19.8863 15.9566 18.6729 15.6644 17.322 15.6644C16.2596 15.6644 15.297 15.8296 14.4341 16.1548C13.5713 16.4799 12.8351 16.955 12.2149 17.5774C11.5974 18.1999 11.1175 18.9468 10.7696 19.8283C10.4272 20.7099 10.2546 21.6879 10.2546 22.7727C10.2546 23.8575 10.4272 24.8331 10.7696 25.7146C11.1175 26.5962 11.5974 27.3456 12.2149 27.9655C12.8351 28.5905 13.5713 29.063 14.4341 29.3882C15.297 29.7159 16.2596 29.8785 17.322 29.8785C18.6729 29.8785 19.889 29.5838 20.9622 29.0071C22.0408 28.4228 23.0223 27.6022 23.9175 26.5505L27.1344 29.2535L28.2238 30.1681V30.1656Z" fill="url(#paint4_linear_535_940)"/>
<path d="M54.2829 7.42817C54.2829 7.42817 54.2343 7.4612 54.1211 7.49931C52.7027 7.95914 51.2844 8.42659 49.9119 8.8788C49.4697 9.0236 49.0302 9.16841 48.596 9.31322C46.7247 9.93056 44.9774 10.5123 43.4674 11.0154C43.2382 11.0916 43.0575 11.0916 42.8067 11.0077C41.2024 10.4717 39.5548 9.91786 37.8722 9.36403C37.4354 9.21922 36.9959 9.07441 36.5591 8.92961C35.1461 8.46215 33.717 7.99216 32.2852 7.52979C32.145 7.48406 32.0722 7.4485 32.0371 7.42817C32.0425 7.41039 32.0452 7.38498 32.056 7.34688L32.1099 7.16904L32.0506 6.99121C32.0452 6.9658 32.0371 6.94548 32.0371 6.9277C32.0722 6.90737 32.1504 6.8718 32.2798 6.82862C35.3915 5.82004 38.6947 4.72509 42.6746 3.39895C43.0144 3.28463 43.2786 3.28463 43.6103 3.39387C46.6654 4.42023 50.4674 5.69556 54.1319 6.8718C54.2127 6.89721 54.2505 6.91753 54.2586 6.91753C54.2775 6.97342 54.2855 7.13093 54.2909 7.24526C54.2963 7.37228 54.2829 7.42309 54.2829 7.42817Z" fill="#232323"/>
<path d="M34.1209 18.7994C34.0265 18.9112 33.7865 18.9696 33.4117 18.9823C33.3632 18.9874 33.3119 18.9874 33.258 18.9874C32.7646 18.962 32.4949 18.9315 32.3898 18.8096C32.2819 18.6952 32.2711 18.4234 32.3628 17.9788C32.3628 17.9712 32.3682 17.961 32.3682 17.9534L32.9884 14.9582C33.0279 14.777 33.1124 14.6863 33.2418 14.6863H33.2769C33.4387 14.6863 33.4522 14.7041 33.5034 14.9455L33.5897 15.3443V15.3494L33.6436 15.6136C33.7838 16.2741 33.9186 16.9296 34.0643 17.5876C34.0912 17.7248 34.1182 17.8594 34.1505 17.9966C34.2368 18.4107 34.2287 18.6775 34.1236 18.8019L34.1209 18.7994Z" fill="#232323"/>
<path d="M32.7683 9.02112C33.4639 9.03636 33.8145 9.28787 33.7363 10.0551C33.6743 10.6699 33.7012 11.2999 33.7309 11.9224C33.7498 12.3136 33.5583 12.3542 33.2725 12.3288C33.0379 12.3085 32.7548 12.4152 32.7629 11.9706C32.7817 10.99 32.7683 10.0119 32.7683 9.02112Z" fill="#232323"/>
<path d="M33.3066 13.988C32.8509 13.96 32.5677 13.7543 32.557 13.3478C32.5462 12.9438 32.8158 12.6974 33.2445 12.6872C33.6463 12.6796 33.9025 12.921 33.9321 13.2817C33.9645 13.6882 33.6949 13.9092 33.3066 13.9854V13.988Z" fill="#232323"/>
<path d="M29.1371 44.4127H0.00195312V44.7321H29.1371V44.4127Z" fill="#1F2F98"/>
<defs>
<linearGradient id="paint0_linear_535_940" x1="-8.53946" y1="-10.6323" x2="125.588" y2="26.0499" gradientUnits="userSpaceOnUse">
<stop stop-color="#2EAAFA"/>
<stop offset="1" stop-color="#1F2F98"/>
</linearGradient>
<linearGradient id="paint1_linear_535_940" x1="-10.3225" y1="-4.1108" x2="123.805" y2="32.5713" gradientUnits="userSpaceOnUse">
<stop stop-color="#2EAAFA"/>
<stop offset="1" stop-color="#1F2F98"/>
</linearGradient>
<linearGradient id="paint2_linear_535_940" x1="-11.7401" y1="1.07436" x2="122.387" y2="37.7565" gradientUnits="userSpaceOnUse">
<stop stop-color="#2EAAFA"/>
<stop offset="1" stop-color="#1F2F98"/>
</linearGradient>
<linearGradient id="paint3_linear_535_940" x1="-14.4822" y1="11.1041" x2="119.642" y2="47.789" gradientUnits="userSpaceOnUse">
<stop stop-color="#2EAAFA"/>
<stop offset="1" stop-color="#1F2F98"/>
</linearGradient>
<linearGradient id="paint4_linear_535_940" x1="-15.5235" y1="14.8998" x2="118.604" y2="51.5847" gradientUnits="userSpaceOnUse">
<stop stop-color="#2EAAFA"/>
<stop offset="1" stop-color="#1F2F98"/>
</linearGradient>
</defs>
</svg>
