<svg width="16" height="16" viewBox="0 0 16 16" fill="none" xmlns="http://www.w3.org/2000/svg">
<path d="M15.1834 15.4461L15.1822 15.4449L11.5252 11.7878C11.4525 11.7152 11.4525 11.5975 11.5252 11.5249C11.5978 11.4523 11.7155 11.4523 11.7881 11.5249L15.4451 15.182C15.5177 15.2546 15.5177 15.3723 15.4451 15.4449C15.4089 15.4811 15.3612 15.4996 15.3132 15.4996C15.2644 15.4996 15.2185 15.4815 15.1834 15.4461Z" fill="#549BFF" stroke="#6B6B6B"/>
<path d="M7.08551 13.671C3.45502 13.671 0.5 10.716 0.5 7.08551C0.5 3.45502 3.45502 0.5 7.08551 0.5C10.716 0.5 13.671 3.45502 13.671 7.08551C13.671 10.716 10.716 13.671 7.08551 13.671ZM7.08551 0.871389C3.65883 0.871389 0.871389 3.65883 0.871389 7.08551C0.871389 10.5122 3.65883 13.2996 7.08551 13.2996C10.5122 13.2996 13.2996 10.5122 13.2996 7.08551C13.2996 3.65883 10.5122 0.871389 7.08551 0.871389Z" fill="#112D55" stroke="#6B6B6B"/>
</svg>
