<svg width="252" height="56" viewBox="0 0 252 56" fill="none" xmlns="http://www.w3.org/2000/svg">
<path d="M43.7304 50.6954L40.3022 46.7529H38.9844V53.2501H40.5598V49.3076L43.9979 53.2501H45.3057V46.7529H43.7304V50.6954Z" fill="white"/>
<path d="M49.4641 48.1848C49.0447 48.1848 48.6285 48.2376 48.2223 48.3434C47.816 48.4492 47.466 48.5955 47.1786 48.7884L47.7302 49.7997C47.9217 49.6566 48.1529 49.5446 48.4237 49.4605C48.6946 49.3765 48.972 49.3361 49.256 49.3361C49.6689 49.3361 49.976 49.4232 50.1775 49.5974C50.3789 49.7717 50.478 50.0113 50.478 50.3225H49.256C48.7177 50.3225 48.2817 50.3847 47.9449 50.5123C47.6113 50.6399 47.3636 50.8141 47.2117 51.035C47.0564 51.2591 46.9805 51.5174 46.9805 51.8161C46.9805 52.1148 47.0597 52.3575 47.2183 52.5847C47.3768 52.8149 47.6014 52.9954 47.8986 53.1261C48.1926 53.2599 48.5493 53.3252 48.9621 53.3252C49.4278 53.3252 49.8109 53.2412 50.1048 53.0732C50.3063 52.9581 50.4615 52.8056 50.5771 52.622V53.2506H52.0171V50.4003C52.0171 49.6379 51.7925 49.0809 51.3466 48.72C50.9008 48.3621 50.2733 48.1816 49.4641 48.1816V48.1848ZM50.478 51.6729C50.3856 51.897 50.2369 52.065 50.0355 52.1801C49.8307 52.2953 49.6028 52.3513 49.3452 52.3513C49.0777 52.3513 48.863 52.2984 48.7111 52.1895C48.5559 52.0806 48.4799 51.9343 48.4799 51.7476C48.4799 51.5796 48.5459 51.4427 48.6814 51.3307C48.8168 51.2186 49.0645 51.1626 49.4245 51.1626H50.478V51.6729Z" fill="white"/>
<path d="M56.0595 51.6569L54.5931 48.2559H53.0078L55.2338 53.2501H56.8191L59.0551 48.2559H57.5787L56.0595 51.6569Z" fill="white"/>
<path d="M61.7145 48.2559H60.1787V53.247H61.7145V48.2559Z" fill="white"/>
<path d="M60.9486 45.9468C60.6646 45.9468 60.4367 46.0246 60.2584 46.1802C60.08 46.3357 59.9941 46.5256 59.9941 46.7558C59.9941 46.9861 60.0833 47.1759 60.2584 47.3315C60.4367 47.4871 60.6646 47.5648 60.9486 47.5648C61.2327 47.5648 61.4704 47.4871 61.6422 47.3284C61.8139 47.1697 61.9031 46.9705 61.9031 46.7309C61.9031 46.4913 61.8139 46.314 61.6389 46.1708C61.4638 46.0277 61.2327 45.953 60.9486 45.953V45.9468Z" fill="white"/>
<path d="M67.6466 48.8973C67.4881 48.7044 67.2999 48.5488 67.0753 48.4368C66.7351 48.2657 66.3388 48.1816 65.8929 48.1816C65.4008 48.1816 64.9549 48.2812 64.5586 48.4772C64.1623 48.6764 63.8419 48.9564 63.6041 49.3174C63.363 49.6784 63.2441 50.1047 63.2441 50.5932C63.2441 51.0817 63.363 51.4987 63.6041 51.8596C63.8419 52.2206 64.1623 52.5038 64.5586 52.7029C64.9549 52.9052 65.4008 53.0047 65.8929 53.0047C66.3388 53.0047 66.7351 52.9176 67.0753 52.7434C67.2635 52.6469 67.4254 52.5224 67.5674 52.3731V52.5971C67.5674 53.0483 67.4452 53.3906 67.1975 53.6177C66.9531 53.848 66.5567 53.96 66.0118 53.96C65.6782 53.96 65.3381 53.9102 64.9913 53.8075C64.6478 53.7049 64.3638 53.5679 64.1392 53.3937L63.5282 54.433C63.8353 54.6633 64.2217 54.8344 64.6841 54.9464C65.1465 55.0616 65.6287 55.1176 66.1274 55.1176C67.0852 55.1176 67.8217 54.8966 68.3336 54.4579C68.8455 54.0191 69.0998 53.3346 69.0998 52.4073V48.2501H67.6433V48.8911L67.6466 48.8973ZM67.4088 51.2373C67.2899 51.424 67.1281 51.5671 66.9167 51.6698C66.7054 51.7725 66.4676 51.8223 66.1968 51.8223C65.9259 51.8223 65.6881 51.7725 65.4768 51.6698C65.2654 51.5671 65.1003 51.424 64.9781 51.2373C64.8559 51.0506 64.7964 50.839 64.7964 50.5963C64.7964 50.3536 64.8559 50.1327 64.9781 49.9522C65.1003 49.7686 65.2654 49.6286 65.4768 49.5259C65.6881 49.4232 65.9259 49.3734 66.1968 49.3734C66.4676 49.3734 66.7054 49.4232 66.9167 49.5259C67.1281 49.6286 67.2899 49.7717 67.4088 49.9522C67.5277 50.1358 67.5872 50.3505 67.5872 50.5963C67.5872 50.8421 67.5277 51.0506 67.4088 51.2373Z" fill="white"/>
<path d="M73.1614 48.1848C72.7419 48.1848 72.3258 48.2376 71.9195 48.3434C71.5133 48.4492 71.1632 48.5955 70.8759 48.7884L71.4274 49.7997C71.619 49.6566 71.8502 49.5446 72.121 49.4605C72.3918 49.3765 72.6693 49.3361 72.9533 49.3361C73.3661 49.3361 73.6733 49.4232 73.8747 49.5974C74.0762 49.7717 74.1753 50.0113 74.1753 50.3225H72.9533C72.415 50.3225 71.979 50.3847 71.6421 50.5123C71.3085 50.6399 71.0608 50.8141 70.9089 51.035C70.7537 51.2591 70.6777 51.5174 70.6777 51.8161C70.6777 52.1148 70.757 52.3575 70.9155 52.5847C71.0741 52.8149 71.2986 52.9954 71.5959 53.1261C71.8898 53.2599 72.2465 53.3252 72.6594 53.3252C73.125 53.3252 73.5081 53.2412 73.8021 53.0732C74.0035 52.9581 74.1588 52.8056 74.2744 52.622V53.2506H75.7144V50.4003C75.7144 49.6379 75.4898 49.0809 75.0439 48.72C74.598 48.3621 73.9705 48.1816 73.1614 48.1816V48.1848ZM74.1753 51.6729C74.0828 51.897 73.9342 52.065 73.7327 52.1801C73.528 52.2953 73.3001 52.3513 73.0425 52.3513C72.7749 52.3513 72.5603 52.2984 72.4083 52.1895C72.2531 52.0806 72.1772 51.9343 72.1772 51.7476C72.1772 51.5796 72.2432 51.4427 72.3786 51.3307C72.514 51.2186 72.7617 51.1626 73.1217 51.1626H74.1753V51.6729Z" fill="white"/>
<path d="M79.9753 52.1731C79.7706 52.1731 79.612 52.1171 79.4931 52.002C79.3742 51.8869 79.3148 51.725 79.3148 51.5134V49.4815H80.6359V48.3675H79.3148V47.1509H77.779V48.3675H76.96V49.4815H77.779V51.5321C77.779 52.1264 77.9541 52.5745 78.3009 52.8732C78.6476 53.172 79.1331 53.3244 79.7573 53.3244C79.9951 53.3244 80.223 53.2964 80.441 53.2467C80.659 53.1969 80.8505 53.116 81.0058 53.0102L80.5929 51.9895C80.4212 52.114 80.2164 52.1762 79.972 52.1762L79.9753 52.1731Z" fill="white"/>
<path d="M86.0384 48.4928C85.6222 48.2843 85.1533 48.1816 84.6347 48.1816C84.1162 48.1816 83.6142 48.2905 83.1881 48.5115C82.7621 48.7324 82.4252 49.0342 82.1775 49.4201C81.9298 49.8059 81.8076 50.2509 81.8076 50.7519C81.8076 51.2529 81.9331 51.6885 82.1808 52.0743C82.4285 52.4602 82.7819 52.7651 83.241 52.9892C83.6968 53.2132 84.2285 53.3221 84.8329 53.3221C85.3118 53.3221 85.7345 53.2537 86.1044 53.1136C86.471 52.9736 86.7782 52.7745 87.0193 52.5162L86.2035 51.6823C86.0252 51.8441 85.8303 51.9623 85.6156 52.0432C85.401 52.1241 85.1533 52.1646 84.8725 52.1646C84.5588 52.1646 84.2813 52.1117 84.0501 52.0028C83.8157 51.8939 83.6373 51.7383 83.5085 51.5298C83.4391 51.4178 83.3929 51.2933 83.3599 51.1626H87.3628C87.3694 51.1004 87.376 51.035 87.3826 50.9635C87.3892 50.8919 87.3925 50.8297 87.3925 50.7737C87.3925 50.2353 87.2703 49.7717 87.0292 49.3859C86.7848 49 86.4545 48.7013 86.0384 48.4959V48.4928ZM83.3467 50.3162C83.3731 50.1638 83.4127 50.0175 83.4854 49.8931C83.5977 49.697 83.7529 49.5477 83.9544 49.4388C84.1558 49.3298 84.387 49.2769 84.6479 49.2769C84.9089 49.2769 85.14 49.3298 85.3382 49.4388C85.5364 49.5477 85.6883 49.697 85.8006 49.8899C85.8732 50.0144 85.9129 50.1607 85.9393 50.3162H83.35H83.3467Z" fill="white"/>
<path d="M94.8724 49.6375L93.0361 46.7529H91.3418L94.0104 50.935V53.2501H95.6056V50.9506L98.2841 46.7529H96.7186L94.8724 49.6375Z" fill="white"/>
<path d="M102.767 48.5115C102.328 48.2905 101.829 48.1816 101.271 48.1816C100.713 48.1816 100.204 48.2905 99.768 48.5115C99.3321 48.7324 98.9853 49.0342 98.7343 49.4201C98.48 49.8059 98.3545 50.2509 98.3545 50.7519C98.3545 51.2529 98.48 51.6885 98.7343 52.0743C98.9886 52.4602 99.3321 52.7651 99.768 52.9892C100.204 53.2132 100.706 53.3221 101.271 53.3221C101.836 53.3221 102.328 53.2101 102.767 52.9892C103.206 52.7651 103.553 52.4633 103.801 52.0743C104.048 51.6854 104.174 51.2466 104.174 50.7519C104.174 50.2571 104.048 49.7997 103.801 49.417C103.55 49.0342 103.206 48.7324 102.767 48.5115ZM102.443 51.4893C102.324 51.6978 102.162 51.8565 101.961 51.9685C101.756 52.0806 101.528 52.1366 101.271 52.1366C101.013 52.1366 100.785 52.0806 100.581 51.9685C100.376 51.8565 100.214 51.6978 100.092 51.4893C99.9695 51.2809 99.9101 51.035 99.9101 50.7519C99.9101 50.4687 99.9695 50.2136 100.092 50.0082C100.214 49.8028 100.376 49.6472 100.581 49.5352C100.785 49.4232 101.013 49.3672 101.271 49.3672C101.528 49.3672 101.756 49.4232 101.961 49.5352C102.166 49.6472 102.324 49.8028 102.443 50.0082C102.562 50.2136 102.622 50.4594 102.622 50.7519C102.622 51.0444 102.562 51.2809 102.443 51.4893Z" fill="white"/>
<path d="M109.494 50.7265C109.494 51.0284 109.441 51.2835 109.336 51.4827C109.23 51.6849 109.085 51.8312 108.903 51.9276C108.718 52.0241 108.51 52.0708 108.272 52.0708C107.932 52.0708 107.668 51.9743 107.48 51.7783C107.291 51.5822 107.199 51.2773 107.199 50.8634V48.2559H105.663V51.0782C105.663 51.5916 105.759 52.0148 105.947 52.3446C106.139 52.6744 106.406 52.9203 106.75 53.0821C107.093 53.2439 107.486 53.3248 107.925 53.3248C108.332 53.3248 108.708 53.2377 109.052 53.0603C109.253 52.9576 109.425 52.8207 109.57 52.6589V53.2501H111.027V48.259H109.491V50.7265H109.494Z" fill="white"/>
<path d="M114.419 48.9215V48.2588H112.952V53.2499H114.488V50.8944C114.488 50.4183 114.617 50.0666 114.878 49.8395C115.139 49.6123 115.475 49.5003 115.898 49.5003C115.958 49.5003 116.014 49.5003 116.067 49.5065C116.119 49.5128 116.179 49.5128 116.245 49.519V48.1841C115.746 48.1841 115.323 48.2743 114.973 48.4579C114.749 48.5762 114.567 48.7348 114.422 48.9215H114.419Z" fill="white"/>
<path d="M122.88 48.4983C123.079 48.3116 123.31 48.1716 123.581 48.072C123.848 47.9724 124.145 47.9226 124.466 47.9226C124.806 47.9226 125.123 47.9849 125.41 48.1125C125.698 48.24 125.962 48.4298 126.2 48.6819L127.224 47.7919C126.897 47.4154 126.49 47.1292 126.008 46.9331C125.526 46.7371 124.984 46.6406 124.386 46.6406C123.848 46.6406 123.353 46.7215 122.9 46.8864C122.448 47.0514 122.051 47.2847 121.715 47.5866C121.378 47.8884 121.114 48.2462 120.925 48.6539C120.737 49.0615 120.645 49.5096 120.645 49.9981C120.645 50.4867 120.737 50.9347 120.925 51.3424C121.114 51.75 121.374 52.1078 121.708 52.4097C122.042 52.7115 122.438 52.948 122.894 53.1098C123.349 53.2747 123.845 53.3556 124.377 53.3556C124.981 53.3556 125.523 53.256 126.008 53.06C126.49 52.8609 126.897 52.5746 127.224 52.1981L126.2 51.3081C125.965 51.5695 125.701 51.7624 125.41 51.8869C125.12 52.0145 124.806 52.0767 124.466 52.0767C124.142 52.0767 123.848 52.0269 123.581 51.9274C123.31 51.8278 123.079 51.6878 122.88 51.5011C122.682 51.3144 122.53 51.0965 122.421 50.8414C122.312 50.5893 122.26 50.3062 122.26 49.9981C122.26 49.6901 122.312 49.4069 122.421 49.1549C122.53 48.8997 122.682 48.6819 122.88 48.4952V48.4983Z" fill="white"/>
<path d="M130.781 48.1848C130.361 48.1848 129.945 48.2376 129.539 48.3434C129.132 48.4492 128.782 48.5955 128.495 48.7884L129.047 49.7997C129.238 49.6566 129.469 49.5446 129.74 49.4605C130.011 49.3765 130.288 49.3361 130.572 49.3361C130.985 49.3361 131.292 49.4232 131.494 49.5974C131.695 49.7717 131.794 50.0113 131.794 50.3225H130.572C130.034 50.3225 129.598 50.3847 129.261 50.5123C128.928 50.6399 128.68 50.8141 128.528 51.035C128.373 51.2591 128.297 51.5174 128.297 51.8161C128.297 52.1148 128.376 52.3575 128.535 52.5847C128.693 52.8149 128.918 52.9954 129.215 53.1261C129.509 53.2599 129.866 53.3252 130.278 53.3252C130.744 53.3252 131.127 53.2412 131.421 53.0732C131.623 52.9581 131.778 52.8056 131.894 52.622V53.2506H133.333V50.4003C133.333 49.6379 133.109 49.0809 132.663 48.72C132.217 48.3621 131.59 48.1816 130.781 48.1816V48.1848ZM131.794 51.6729C131.702 51.897 131.553 52.065 131.352 52.1801C131.147 52.2953 130.919 52.3513 130.662 52.3513C130.394 52.3513 130.179 52.2984 130.027 52.1895C129.872 52.0806 129.796 51.9343 129.796 51.7476C129.796 51.5796 129.862 51.4427 129.998 51.3307C130.133 51.2186 130.381 51.1626 130.741 51.1626H131.794V51.6729Z" fill="white"/>
<path d="M143.116 48.4206C142.793 48.2619 142.419 48.1841 141.997 48.1841C141.491 48.1841 141.042 48.2992 140.652 48.5264C140.428 48.6571 140.243 48.8189 140.091 49.0025C139.969 48.8126 139.81 48.6539 139.619 48.5326C139.255 48.2992 138.829 48.1841 138.344 48.1841C137.911 48.1841 137.525 48.2712 137.188 48.4486C136.993 48.5513 136.825 48.6851 136.679 48.8406V48.2588H135.213V53.2499H136.749V50.745C136.749 50.4494 136.798 50.2036 136.897 50.0106C136.996 49.8177 137.135 49.6746 137.31 49.5781C137.488 49.4816 137.687 49.435 137.911 49.435C138.232 49.435 138.479 49.5314 138.654 49.7213C138.829 49.9142 138.915 50.2098 138.915 50.6112V53.2468H140.451V50.7419C140.451 50.4463 140.501 50.2004 140.6 50.0075C140.699 49.8146 140.834 49.6715 141.012 49.575C141.191 49.4785 141.389 49.4319 141.614 49.4319C141.934 49.4319 142.185 49.5283 142.363 49.7181C142.542 49.9111 142.627 50.2067 142.627 50.6081V53.2437H144.163V50.384C144.163 49.8768 144.071 49.4599 143.882 49.1363C143.694 48.8126 143.44 48.5699 143.116 48.4112V48.4206Z" fill="white"/>
<path d="M150.514 48.5021C150.118 48.2874 149.669 48.1816 149.17 48.1816C148.704 48.1816 148.305 48.275 147.968 48.4586C147.789 48.555 147.638 48.6826 147.505 48.8351V48.2563H146.039V55.0491H147.575V52.7153C147.7 52.846 147.839 52.9581 147.998 53.0452C148.331 53.2319 148.724 53.3221 149.17 53.3221C149.669 53.3221 150.118 53.2163 150.514 53.0078C150.911 52.7963 151.228 52.5006 151.459 52.1179C151.693 51.7352 151.809 51.2809 151.809 50.755C151.809 50.2291 151.693 49.7842 151.459 49.4014C151.224 49.0187 150.911 48.72 150.514 48.5053V48.5021ZM150.072 51.4893C149.949 51.6978 149.791 51.8565 149.589 51.9685C149.388 52.0806 149.16 52.1366 148.906 52.1366C148.651 52.1366 148.42 52.0806 148.216 51.9685C148.011 51.8565 147.852 51.6978 147.733 51.4893C147.614 51.2809 147.555 51.035 147.555 50.7519C147.555 50.4687 147.614 50.2136 147.733 50.0082C147.852 49.8028 148.014 49.6472 148.216 49.5352C148.42 49.4232 148.648 49.3672 148.906 49.3672C149.163 49.3672 149.391 49.4232 149.589 49.5352C149.791 49.6472 149.949 49.8028 150.072 50.0082C150.194 50.2136 150.253 50.4594 150.253 50.7519C150.253 51.0444 150.194 51.2809 150.072 51.4893Z" fill="white"/>
<path d="M157.126 50.7265C157.126 51.0284 157.073 51.2835 156.968 51.4827C156.862 51.6849 156.717 51.8312 156.535 51.9276C156.35 52.0241 156.142 52.0708 155.904 52.0708C155.564 52.0708 155.3 51.9743 155.111 51.7783C154.923 51.5822 154.831 51.2773 154.831 50.8634V48.2559H153.295V51.0782C153.295 51.5916 153.391 52.0148 153.579 52.3446C153.771 52.6744 154.038 52.9203 154.382 53.0821C154.725 53.2439 155.118 53.3248 155.557 53.3248C155.963 53.3248 156.34 53.2377 156.683 53.0603C156.885 52.9576 157.057 52.8207 157.202 52.6589V53.2501H158.659V48.259H157.123V50.7265H157.126Z" fill="white"/>
<path d="M164.233 50.6267C164.045 50.5241 163.837 50.4463 163.609 50.3903C163.381 50.3342 163.15 50.2938 162.925 50.2658C162.698 50.2378 162.489 50.2067 162.301 50.1693C162.11 50.132 161.958 50.0822 161.842 50.02C161.727 49.9577 161.67 49.8644 161.67 49.743C161.67 49.6061 161.75 49.4941 161.908 49.4101C162.067 49.323 162.314 49.2794 162.658 49.2794C162.899 49.2794 163.153 49.3043 163.411 49.3572C163.672 49.4101 163.929 49.5065 164.184 49.6497L164.696 48.6197C164.445 48.4766 164.134 48.3708 163.761 48.2961C163.388 48.2214 163.018 48.1841 162.658 48.1841C162.146 48.1841 161.707 48.2525 161.337 48.3926C160.97 48.5326 160.686 48.7224 160.495 48.962C160.303 49.2016 160.204 49.4816 160.204 49.7959C160.204 50.0791 160.263 50.3125 160.376 50.4929C160.491 50.6734 160.643 50.8134 160.835 50.9192C161.026 51.025 161.234 51.1028 161.466 51.1557C161.697 51.2086 161.925 51.2491 162.149 51.2802C162.377 51.3113 162.585 51.3424 162.773 51.3735C162.965 51.4047 163.117 51.4482 163.233 51.5073C163.348 51.5665 163.404 51.6536 163.404 51.7718C163.404 51.915 163.332 52.027 163.183 52.1048C163.034 52.1857 162.783 52.2261 162.43 52.2261C162.106 52.2261 161.783 52.1826 161.449 52.0923C161.119 52.0021 160.832 51.887 160.587 51.7438L160.075 52.7831C160.316 52.9387 160.647 53.0663 161.066 53.169C161.482 53.2717 161.918 53.3215 162.371 53.3215C162.902 53.3215 163.355 53.253 163.725 53.1161C164.095 52.9792 164.379 52.7925 164.577 52.556C164.775 52.3195 164.871 52.0426 164.871 51.7345C164.871 51.4513 164.811 51.2211 164.692 51.0437C164.573 50.8663 164.422 50.7294 164.233 50.6267Z" fill="white"/>
<path d="M171.288 46.7529H169.692V53.2501H171.288V46.7529Z" fill="white"/>
<path d="M177.655 48.4206C177.325 48.2619 176.948 48.1841 176.529 48.1841C176.076 48.1841 175.673 48.2743 175.317 48.4517C175.102 48.5606 174.93 48.7068 174.775 48.8686V48.2556H173.309V53.2468H174.844V50.7792C174.844 50.4712 174.897 50.216 175.006 50.0169C175.115 49.8177 175.264 49.6715 175.459 49.575C175.654 49.4785 175.871 49.4319 176.113 49.4319C176.453 49.4319 176.717 49.5283 176.905 49.7181C177.093 49.9111 177.186 50.2067 177.186 50.6081V53.2437H178.722V50.384C178.722 49.8768 178.626 49.4599 178.438 49.1363C178.246 48.8126 177.985 48.5699 177.655 48.4112V48.4206Z" fill="white"/>
<path d="M190.437 46.7529L187.897 50.7857L185.314 46.7529H183.993V53.2501H185.493V49.4352L187.511 52.5624H188.231L190.258 49.3512L190.268 53.2501H191.764L191.745 46.7529H190.437Z" fill="white"/>
<path d="M195.923 48.1848C195.504 48.1848 195.088 48.2376 194.681 48.3434C194.275 48.4492 193.925 48.5955 193.638 48.7884L194.189 49.7997C194.381 49.6566 194.612 49.5446 194.883 49.4605C195.154 49.3765 195.431 49.3361 195.715 49.3361C196.128 49.3361 196.435 49.4232 196.636 49.5974C196.838 49.7717 196.937 50.0113 196.937 50.3225H195.715C195.177 50.3225 194.741 50.3847 194.404 50.5123C194.07 50.6399 193.823 50.8141 193.671 51.035C193.515 51.2591 193.439 51.5174 193.439 51.8161C193.439 52.1148 193.519 52.3575 193.677 52.5847C193.836 52.8149 194.06 52.9954 194.358 53.1261C194.652 53.2599 195.008 53.3252 195.421 53.3252C195.887 53.3252 196.27 53.2412 196.564 53.0732C196.765 52.9581 196.921 52.8056 197.036 52.622V53.2506H198.476V50.4003C198.476 49.6379 198.251 49.0809 197.806 48.72C197.36 48.3621 196.732 48.1816 195.923 48.1816V48.1848ZM196.937 51.6729C196.845 51.897 196.696 52.065 196.494 52.1801C196.29 52.2953 196.062 52.3513 195.804 52.3513C195.537 52.3513 195.322 52.2984 195.17 52.1895C195.015 52.0806 194.939 51.9343 194.939 51.7476C194.939 51.5796 195.005 51.4427 195.14 51.3307C195.276 51.2186 195.523 51.1626 195.883 51.1626H196.937V51.6729Z" fill="white"/>
<path d="M204.629 49.1302V48.2559H200.058V49.3698H202.687L199.988 52.3757V53.2501H204.718V52.1361H201.93L204.629 49.1302Z" fill="white"/>
<path d="M210.953 49.3852C210.709 48.9993 210.378 48.7006 209.962 48.4952C209.546 48.2868 209.077 48.1841 208.559 48.1841C208.04 48.1841 207.538 48.293 207.112 48.5139C206.686 48.7348 206.349 49.0367 206.101 49.4225C205.854 49.8084 205.731 50.2533 205.731 50.7543C205.731 51.2553 205.857 51.6909 206.105 52.0768C206.352 52.4626 206.706 52.7676 207.165 52.9916C207.621 53.2157 208.152 53.3246 208.757 53.3246C209.236 53.3246 209.658 53.2561 210.028 53.1161C210.395 52.9761 210.702 52.7769 210.943 52.5186L210.127 51.6847C209.949 51.8465 209.754 51.9648 209.539 52.0457C209.325 52.1266 209.077 52.167 208.796 52.167C208.483 52.167 208.205 52.1141 207.974 52.0052C207.739 51.8963 207.561 51.7407 207.432 51.5322C207.363 51.4202 207.317 51.2958 207.284 51.1651H211.287C211.293 51.1028 211.3 51.0375 211.306 50.9659C211.313 50.8944 211.316 50.8321 211.316 50.7761C211.316 50.2378 211.194 49.7741 210.953 49.3883V49.3852ZM207.271 50.3187C207.297 50.1662 207.337 50.02 207.409 49.8955C207.522 49.6995 207.677 49.5501 207.878 49.4412C208.08 49.3323 208.311 49.2794 208.572 49.2794C208.833 49.2794 209.064 49.3323 209.262 49.4412C209.46 49.5501 209.612 49.6995 209.724 49.8924C209.797 50.0169 209.837 50.1631 209.863 50.3187H207.274H207.271Z" fill="white"/>
<path d="M251.999 50.3408H214.612V50.732H251.999V50.3408Z" fill="white"/>
<path d="M197.935 40.3519H191.96L191.927 34.2281L188.955 38.9361H185.995L183.036 34.4366V40.3519H177.062V23.832H182.349L187.548 31.8228L192.597 23.832H197.888L197.938 40.3519H197.935ZM192.806 39.5491H197.079L197.033 24.6317H193.076L187.554 33.3724L181.87 24.6317H177.91V39.5491H182.184V31.6206L186.468 38.1364H188.469L192.759 31.3343L192.806 39.5522V39.5491Z" fill="white"/>
<path d="M219.858 40.3519H213.097L211.981 37.6136H206.221L205.101 40.3519H198.437L206.102 23.832H212.189L219.855 40.3519H219.858ZM213.685 39.5491H218.557L211.637 24.6317H206.664L199.741 39.5491H204.517L205.636 36.8108H212.565L213.682 39.5491H213.685ZM211.337 33.7956H206.868L209.104 28.316L211.34 33.7956H211.337ZM208.107 32.9928H210.098L209.101 30.5501L208.104 32.9928H208.107Z" fill="white"/>
<path d="M236.543 40.3519H220.366V36.5463L227.48 28.7423H220.604V23.832H236.16V27.6376L229.046 35.4417H236.543V40.3519ZM221.218 39.5491H235.691V36.2414H227.193L235.311 27.3389V24.6317H221.456V27.9394H229.336L221.218 36.8419V39.5491Z" fill="white"/>
<path d="M252 40.3519H237.276V23.832H251.689V28.6302H243.657V29.6695H250.712V34.2904H243.657V35.5537H252V40.3519ZM238.128 39.5491H251.148V36.3534H242.805V33.4876H249.86V30.4723H242.805V27.8305H250.837V24.6348H238.128V39.5522V39.5491Z" fill="white"/>
<path d="M174.67 30.2915C174.67 32.4137 174.029 34.3647 172.744 36.1352C171.46 37.9089 169.551 39.3371 167.018 40.4107C164.484 41.4904 161.297 42.0256 157.463 42.0256C154.368 42.0256 151.376 41.6958 148.493 41.0361C145.609 40.3702 143.235 39.5083 141.372 38.4503L145.378 29.8963C146.059 30.2728 146.772 30.6151 147.518 30.9294C147.723 31.0165 147.935 31.1068 148.149 31.1845C148.314 31.253 148.486 31.3215 148.658 31.3775C148.806 31.4397 148.955 31.4926 149.11 31.5455C149.256 31.5984 149.398 31.6513 149.543 31.6917C149.698 31.7446 149.853 31.7975 150.012 31.8442C150.25 31.922 150.494 31.9967 150.735 32.062L153.823 34.7941C153.823 34.7941 153.731 33.7299 153.562 32.7248C153.694 32.7497 153.827 32.7715 153.962 32.7933C154.167 32.8244 154.378 32.8555 154.583 32.8804C154.804 32.9115 155.025 32.9364 155.247 32.9582C155.442 32.98 155.63 32.9987 155.818 33.0111C155.967 33.0267 156.115 33.036 156.267 33.0422C156.449 33.0578 156.627 33.064 156.802 33.0671C157.063 33.0764 157.317 33.0827 157.572 33.0827C158.767 33.0827 159.709 33.0049 160.392 32.8586C161.079 32.7062 161.578 32.4946 161.898 32.2114C162.215 31.9313 162.374 31.586 162.374 31.1908C162.374 30.5591 162.004 30.0643 161.261 29.7003C160.524 29.3362 159.547 29.0282 158.335 28.7823C157.123 28.5334 155.788 28.2658 154.352 27.9857C152.908 27.7057 151.459 27.3292 149.999 26.8655C148.539 26.4019 147.198 25.792 145.986 25.0265C145.788 24.9021 145.593 24.7714 145.405 24.6251C145.986 23.0755 146.28 21.3828 146.28 19.5593C146.28 16.5721 145.494 13.9241 143.938 11.6961C143.905 11.6432 143.866 11.5966 143.829 11.5437C143.839 11.5219 143.856 11.497 143.872 11.4752C145.16 9.70154 147.076 8.28573 149.626 7.22776C152.175 6.16979 155.352 5.6377 159.154 5.6377C161.651 5.6377 164.111 5.88352 166.542 6.3845C168.973 6.87925 171.153 7.64473 173.088 8.66847L169.336 17.1758C167.51 16.3107 165.739 15.6635 164.035 15.2372C162.324 14.8047 160.666 14.5869 159.048 14.5869C157.846 14.5869 156.901 14.6927 156.198 14.8887C155.491 15.0879 154.992 15.3523 154.692 15.6822C154.395 16.0151 154.243 16.3823 154.243 16.7775C154.243 17.378 154.609 17.8448 155.349 18.1964C156.089 18.5449 157.063 18.8374 158.275 19.0677C158.596 19.1299 158.923 19.189 159.259 19.2544C158.734 20.0043 158.275 20.7729 158.229 20.8507L161.809 19.7242H161.816C161.971 19.7554 162.126 19.7803 162.285 19.8114C163.745 20.0759 165.194 20.443 166.641 20.9067C168.084 21.3703 169.412 21.9802 170.624 22.7457C171.843 23.508 172.814 24.5038 173.55 25.7267C174.29 26.9527 174.663 28.4805 174.663 30.2977L174.67 30.2915Z" fill="white"/>
<path d="M144.54 18.564C144.53 18.4022 144.516 18.2404 144.5 18.0848C144.49 17.9697 144.477 17.8514 144.46 17.7363C144.444 17.6118 144.427 17.4874 144.404 17.366C144.381 17.226 144.361 17.0859 144.332 16.9428C144.308 16.8432 144.292 16.7437 144.272 16.6503C144.256 16.5507 144.232 16.4512 144.206 16.3516C144.206 16.3423 144.199 16.3298 144.199 16.3143C144.193 16.2894 144.183 16.2582 144.176 16.2302C144.133 16.0622 144.087 15.8973 144.031 15.7293C143.991 15.5986 143.948 15.4679 143.902 15.3372C143.82 15.0758 143.724 14.8269 143.615 14.5748C143.559 14.4504 143.503 14.3259 143.45 14.2045C143.394 14.0801 143.334 13.9587 143.271 13.8405C143.209 13.7222 143.143 13.6009 143.077 13.4795C143.01 13.3644 142.944 13.2461 142.872 13.131C142.759 12.9381 142.634 12.7514 142.505 12.5616C142.383 12.3842 142.257 12.2162 142.122 12.0513C142.046 11.9424 141.96 11.8366 141.874 11.737C141.858 11.7152 141.841 11.6965 141.825 11.6747C141.808 11.653 141.792 11.6374 141.775 11.6187C141.765 11.6094 141.759 11.597 141.749 11.5876C141.666 11.4943 141.587 11.404 141.501 11.3107C141.428 11.2267 141.346 11.1426 141.27 11.0649C141.092 10.8813 140.917 10.7101 140.728 10.539C140.636 10.455 140.54 10.371 140.441 10.2901C140.348 10.206 140.246 10.1282 140.144 10.0442C140.051 9.96644 139.949 9.88864 139.85 9.81396C139.744 9.73617 139.638 9.65838 139.529 9.58059C139.315 9.42812 139.097 9.28187 138.872 9.14184C138.684 9.02671 138.489 8.91158 138.291 8.79645C138.235 8.76533 138.179 8.74044 138.126 8.7031C137.954 8.61286 137.776 8.51951 137.601 8.43238C137.518 8.39193 137.429 8.34837 137.34 8.31103C137.231 8.25813 137.125 8.20523 137.013 8.15855C136.907 8.10566 136.798 8.05898 136.679 8.01231C134.163 6.94811 131.183 6.41602 127.739 6.41602H114.756L114.855 41.2201V41.2263H122.402V32.6723H127.735C131.183 32.6723 134.159 32.134 136.676 31.0574C139.193 29.9838 141.135 28.4653 142.508 26.5112C142.697 26.2467 142.868 25.9729 143.027 25.6928C143.086 25.5902 143.149 25.4781 143.205 25.3755C143.265 25.2697 143.318 25.167 143.37 25.0581C143.397 25.0021 143.427 24.9429 143.453 24.8869C143.503 24.7811 143.545 24.6784 143.592 24.5726C143.651 24.4326 143.714 24.2926 143.77 24.1463C143.866 23.8912 143.958 23.6298 144.034 23.3653C144.388 22.186 144.566 20.9164 144.566 19.5504C144.566 19.2174 144.556 18.8845 144.533 18.5609L144.54 18.564ZM130.774 22.5407C129.945 23.2657 128.67 23.6298 126.946 23.6298H122.408V15.4772H126.946C128.673 15.4772 129.945 15.8413 130.774 16.5725C131.6 17.3038 132.012 18.2995 132.012 19.5535C132.012 20.8075 131.596 21.8095 130.774 22.5407Z" fill="white"/>
<path d="M113.16 41.2356H101.812L101.723 25.3567L93.6842 38.1021H88.1985L80.1762 25.9075V41.2356H77.0981L76.8008 40.5946L68.8281 23.4057V6.42529H79.0632L91.1147 24.9553L102.82 6.42529H113.055L113.16 41.2356Z" fill="white"/>
<path d="M68.8287 27.4106L67.1311 23.7451L60.2086 8.81836C57.8736 9.59005 55.6872 10.3182 53.8113 10.9467C53.4909 11.0557 53.1739 11.1086 52.8601 11.1086C52.5464 11.1086 52.2062 11.0525 51.8627 10.9374C49.8646 10.2715 47.807 9.58072 45.7098 8.88993L42.3113 16.2055C42.4269 16.7469 42.5392 17.2883 42.6548 17.8267C42.7704 18.3588 42.8496 19.0215 42.45 19.479C42.0504 19.9426 41.3205 20.0048 40.7359 20.0048H40.7128C40.6566 20.0048 40.6071 20.0048 40.551 19.9986L35.2832 31.3469L38.2886 33.8705L39.4776 34.8724L38.5033 36.0548C36.7231 38.2144 34.4905 39.9538 31.8682 41.2358H43.3649L45.8386 35.168H59.8883L62.362 41.2358H75.2392L68.8254 27.4106H68.8287ZM49.2899 26.7167L52.8634 17.948L56.4435 26.7167H49.2899Z" fill="white"/>
<path d="M34.5694 32.8904L37.1587 35.0686C35.6031 36.9543 33.7007 38.479 31.4417 39.6303H31.4351C31.0355 39.8388 30.6325 40.0317 30.2131 40.2153C29.8531 40.3709 29.4898 40.5171 29.1133 40.654C26.5834 41.572 23.7464 42.0294 20.5857 42.0294C17.6298 42.0294 14.8919 41.5907 12.3785 40.7163C9.86186 39.8357 7.68208 38.5848 5.83257 36.9574C3.98305 35.3362 2.55299 33.4132 1.53245 31.1914C0.508616 28.9697 0 26.5208 0 23.8354C0 21.1501 0.508616 18.695 1.53245 16.4732C2.54968 14.2515 3.98305 12.3285 5.83257 10.7073C7.68208 9.07988 9.86186 7.82898 12.3785 6.94838C14.8919 6.074 17.6298 5.63525 20.5857 5.63525C24.2088 5.63525 27.419 6.22958 30.2131 7.42447C33.0138 8.61935 35.3257 10.3432 37.1587 12.5961L29.2949 19.2115C28.1984 17.9201 26.9996 16.912 25.6752 16.2025C24.3574 15.4868 22.8712 15.129 21.2165 15.129C19.9153 15.129 18.7362 15.3312 17.6793 15.7295C16.6225 16.1278 15.7208 16.7097 14.9612 17.4721C14.2049 18.2344 13.617 19.1493 13.191 20.229C12.7715 21.3088 12.5602 22.5068 12.5602 23.8354C12.5602 25.1641 12.7715 26.359 13.191 27.4388C13.617 28.5185 14.2049 29.4365 14.9612 30.1957C15.7208 30.9612 16.6225 31.5399 17.6793 31.9382C18.7362 32.3396 19.9153 32.5388 21.2165 32.5388C22.8712 32.5388 24.3607 32.1778 25.6752 31.4715C26.9963 30.7558 28.1984 29.7507 29.2949 28.4625L33.2351 31.7733L34.5694 32.8935V32.8904Z" fill="white"/>
<path d="M66.4875 5.04093C66.4875 5.04093 66.428 5.08138 66.2893 5.12805C64.5521 5.69127 62.8149 6.26381 61.1338 6.81769C60.5922 6.99506 60.0538 7.17242 59.5221 7.34979C57.23 8.10593 55.0899 8.8185 53.2404 9.43461C52.9596 9.52796 52.7384 9.52796 52.4312 9.42528C50.4661 8.76871 48.4482 8.09037 46.3873 7.41202C45.8522 7.23466 45.3139 7.05729 44.7789 6.87993C43.0482 6.30738 41.2978 5.73172 39.5441 5.16539C39.3723 5.10938 39.2832 5.06582 39.2402 5.04093C39.2468 5.01914 39.2501 4.98803 39.2634 4.94135L39.3294 4.72354L39.2567 4.50572C39.2501 4.4746 39.2402 4.44971 39.2402 4.42793C39.2832 4.40303 39.3789 4.35947 39.5375 4.30657C43.3488 3.07124 47.3946 1.7301 52.2694 0.10581C52.6855 -0.0342152 53.0092 -0.0342152 53.4154 0.0995869C57.1574 1.3567 61.8142 2.91876 66.3025 4.35947C66.4016 4.39059 66.4479 4.41548 66.4578 4.41548C66.4809 4.48394 66.4908 4.67686 66.4974 4.81689C66.504 4.97247 66.4875 5.0347 66.4875 5.04093Z" fill="white"/>
<path d="M41.7928 18.969C41.6772 19.1059 41.3833 19.1774 40.9242 19.193C40.8647 19.1992 40.802 19.1992 40.7359 19.1992C40.1315 19.1681 39.8013 19.1308 39.6725 18.9814C39.5404 18.8414 39.5271 18.5084 39.6394 17.9639C39.6394 17.9545 39.646 17.9421 39.646 17.9328L40.4057 14.2641C40.4541 14.0421 40.5576 13.9312 40.7161 13.9312H40.759C40.9572 13.9312 40.9737 13.9529 41.0365 14.2485L41.1422 14.7371V14.7433L41.2082 15.0669C41.38 15.8759 41.5451 16.6788 41.7234 17.4847C41.7565 17.6527 41.7895 17.8176 41.8291 17.9857C41.9348 18.4929 41.9249 18.8196 41.7961 18.9721L41.7928 18.969Z" fill="white"/>
<path d="M40.1347 6.9917C40.9868 7.01037 41.4162 7.31842 41.3204 8.25815C41.2444 9.01118 41.2775 9.78287 41.3138 10.5452C41.3369 11.0244 41.1024 11.0742 40.7523 11.0431C40.465 11.0182 40.1182 11.1489 40.1281 10.6044C40.1513 9.40325 40.1347 8.20525 40.1347 6.9917Z" fill="white"/>
<path d="M40.7955 13.0753C40.2373 13.0411 39.8905 12.7891 39.8773 12.2912C39.8641 11.7964 40.1944 11.4946 40.7195 11.4821C41.2116 11.4728 41.5254 11.7684 41.5617 12.2103C41.6013 12.7081 41.2711 12.9789 40.7955 13.0722V13.0753Z" fill="white"/>
<path d="M35.6886 50.3408H0.00292969V50.732H35.6886V50.3408Z" fill="white"/>
</svg>
