<svg width="27" height="29" viewBox="0 0 27 29" fill="none" xmlns="http://www.w3.org/2000/svg">
<path d="M17.2733 0.629527C11.3937 -0.264643 5.86968 3.55952 4.68402 9.34187C4.47308 10.3752 4.15564 11.2117 3.71612 11.8988C3.67706 11.9608 3.6419 12.0258 3.61163 12.0927L1.48156 16.8329C1.27935 17.2836 1.31158 17.8042 1.5675 18.2261C1.82434 18.649 2.27166 18.9176 2.76489 18.9459L5.19189 19.0836V21.7597C5.19189 23.087 6.27111 24.1662 7.59741 24.1662H8.96966V27.3658C8.96966 28.194 9.6416 28.8659 10.4698 28.8659H20.5177C21.3459 28.8659 22.0179 28.194 22.0179 27.3658C22.0179 24.7542 22.8422 20.7928 24.6822 17.8276C24.6832 17.8267 24.6832 17.8257 24.6842 17.8247C26.368 15.3694 26.9784 12.3764 26.4012 9.38875C26.4012 9.38826 26.4012 9.38826 26.4012 9.38826C25.5241 4.8487 21.8558 1.32881 17.2733 0.629527ZM22.1849 16.1639C22.1605 16.199 22.1381 16.2357 22.1166 16.2728C20.4826 18.9166 19.3516 22.5391 19.0801 25.8656H11.97V23.5714C11.97 22.2451 10.8907 21.1659 9.56347 21.1659H8.19219V18.522C8.19219 17.2475 7.19506 16.1927 5.92241 16.1199L5.1118 16.074L6.30528 13.418C6.91472 12.4369 7.34642 11.2991 7.62376 9.94397C8.48814 5.7287 12.5354 2.93933 16.82 3.59564C20.0997 4.0957 22.8276 6.71222 23.4556 9.95715C23.8814 12.1649 23.4302 14.3693 22.1849 16.1639ZM0.587891 23.4015C0.587891 26.1019 2.7854 28.2994 5.4859 28.2994C6.31409 28.2994 6.98602 27.6275 6.98602 26.7993C6.98602 25.9711 6.31408 25.2991 5.4859 25.2991C4.43988 25.2991 3.58819 24.4475 3.58819 23.4015C3.58819 22.5733 2.91625 21.9013 2.08807 21.9013C1.25982 21.9013 0.587891 22.5732 0.587891 23.4015Z" fill="#2EAAFA"/>
</svg>
